# Blender v2.80 (sub 75) OBJ File: ''
# www.blender.org
mtllib Top.mtl
o M-227.50_3
v 0.040530 -0.124466 0.011532
v 0.040530 -0.124466 -0.011535
v 0.165030 -0.000447 0.000221
v 0.165030 -0.000497 -0.000048
v 0.165030 -0.000263 0.000423
v 0.040530 -0.120228 -0.034210
v 0.040530 -0.120228 0.034206
v 0.040530 -0.111895 -0.055719
v 0.040530 -0.111895 0.055716
v 0.040530 -0.099752 -0.075331
v 0.165030 -0.000399 -0.000303
v 0.040530 -0.099752 0.075328
v 0.040530 -0.084212 -0.092378
v 0.040530 -0.084212 0.092374
v 0.040530 -0.065804 -0.106279
v 0.040530 -0.065804 0.106275
v 0.165030 -0.000180 -0.000468
v 0.040530 -0.045155 -0.116561
v 0.040530 -0.045155 0.116557
v 0.040530 -0.022968 -0.122873
v 0.165030 0.000000 0.000498
v 0.040530 -0.022968 0.122870
v 0.040530 0.000000 -0.125002
v 0.165030 0.000092 -0.000493
v 0.040530 0.022969 -0.122873
v 0.040530 0.000000 0.124998
v 0.165030 0.000399 -0.000303
v 0.040530 0.022969 0.122870
v 0.040530 0.045156 -0.116561
v 0.165030 0.000264 0.000423
v 0.040530 0.045156 0.116557
v 0.040530 0.065804 -0.106279
v 0.040530 0.065804 0.106275
v 0.040530 0.084212 -0.092378
v 0.040530 0.084212 0.092374
v 0.165030 0.000448 0.000221
v 0.040530 0.099753 -0.075331
v 0.040530 0.099753 0.075328
v 0.165030 0.000498 -0.000048
v 0.040530 0.111896 -0.055719
v 0.040530 0.111896 0.055716
v 0.040530 0.120229 -0.034210
v 0.040530 0.120229 0.034206
v 0.040530 0.124467 -0.011535
v 0.040530 0.124467 0.011532
v -0.109970 -0.124466 0.011532
v -0.109970 -0.124466 -0.011535
v -0.109970 -0.120228 -0.034210
v -0.109970 -0.120228 0.034206
v -0.109970 -0.111895 -0.055719
v -0.109970 -0.111895 0.055716
v -0.109970 -0.099752 -0.075331
v -0.109970 -0.099752 0.075328
v -0.109970 -0.084212 -0.092378
v -0.109970 -0.084212 0.092374
v -0.109970 -0.065804 -0.106279
v -0.109970 -0.065804 0.106275
v -0.109970 -0.045155 -0.116561
v -0.109970 -0.045155 0.116557
v -0.109970 -0.022968 -0.122873
v -0.109970 -0.022968 0.122870
v -0.109970 0.000000 -0.125002
v -0.109970 0.000000 0.124998
v -0.109970 0.022969 -0.122873
v -0.109970 0.022969 0.122870
v -0.109970 0.045156 -0.116561
v -0.109970 0.045156 0.116557
v -0.109970 0.065804 -0.106279
v -0.109970 0.065804 0.106275
v -0.109970 0.084212 -0.092378
v -0.109970 0.084212 0.092374
v -0.109970 0.099753 -0.075331
v -0.109970 0.099753 0.075328
v -0.109970 0.111896 -0.055719
v -0.109970 0.111896 0.055716
v -0.109970 0.120229 -0.034210
v -0.109970 0.120229 0.034206
v -0.109970 0.124467 -0.011535
v -0.109970 0.124467 0.011532
v -0.012440 -0.037527 -0.065002
v -0.012440 -0.075055 -0.000002
v 0.025030 -0.000057 0.000098
v -0.012440 -0.037527 0.064998
v -0.012440 0.037528 -0.065002
v 0.025030 0.000116 -0.000002
v -0.012440 0.037528 0.064998
v -0.012440 0.075056 -0.000002
v -0.134970 -0.075055 -0.000002
v -0.134970 -0.037527 -0.065002
v -0.134970 -0.037527 0.064998
v -0.134970 0.037528 -0.065002
v -0.134970 0.037528 0.064998
v -0.134970 0.075056 -0.000002
v -0.134970 -0.099573 -0.009229
v -0.134970 -0.099573 0.009225
v -0.134970 -0.096182 -0.027368
v -0.134970 -0.096182 0.027364
v -0.134970 -0.089516 -0.044576
v -0.134970 -0.089516 0.044572
v -0.134970 -0.079801 -0.060265
v -0.134970 -0.079801 0.060262
v -0.134970 -0.067369 -0.073903
v -0.134970 -0.067369 0.073899
v -0.134970 -0.052643 -0.085024
v -0.134970 -0.052643 0.085020
v -0.134970 -0.036124 -0.093249
v -0.134970 -0.036124 0.093246
v -0.134970 -0.018375 -0.098299
v -0.134970 -0.018375 0.098296
v -0.134970 0.000000 -0.100002
v -0.134970 0.018375 -0.098299
v -0.134970 0.000000 0.099998
v -0.134970 0.018375 0.098296
v -0.134970 0.036125 -0.093249
v -0.134970 0.036125 0.093246
v -0.134970 0.052644 -0.085024
v -0.134970 0.052644 0.085020
v -0.134970 0.067370 -0.073903
v -0.134970 0.067370 0.073899
v -0.134970 0.079802 -0.060265
v -0.134970 0.079802 0.060262
v -0.134970 0.089517 -0.044576
v -0.134970 0.089517 0.044572
v -0.134970 0.096183 -0.027368
v -0.134970 0.096183 0.027364
v -0.134970 0.099574 -0.009229
v -0.134970 0.099574 0.009225
vn 0.7057 -0.7085 0.0000
vn 0.6932 -0.7085 0.1324
vn 1.0000 0.0000 0.0000
vn 0.7056 -0.6966 -0.1302
vn 0.7056 -0.6965 0.1302
vn 0.7056 -0.6607 -0.2560
vn 0.6932 -0.5325 0.4858
vn 0.7056 -0.6608 0.2560
vn 0.7057 -0.6024 -0.3730
vn 0.6932 -0.6720 -0.2604
vn 1.0000 -0.0003 0.0000
vn 0.7057 -0.6024 0.3730
vn 0.7056 -0.5237 -0.4774
vn 0.7056 -0.5236 0.4774
vn 0.7056 -0.4270 -0.5654
vn 0.7056 -0.4270 0.5655
vn 1.0000 0.0002 0.0000
vn 0.7057 -0.3158 -0.6342
vn 0.6931 -0.4348 -0.5749
vn 0.7056 -0.3159 0.6343
vn 0.7056 -0.1939 -0.6816
vn 0.7057 -0.1936 0.6816
vn 0.7056 -0.1939 0.6815
vn 0.7056 -0.0654 -0.7055
vn 1.0000 -0.0001 0.0000
vn 0.7057 0.0654 -0.7055
vn 0.6932 -0.0663 -0.7176
vn 0.7056 -0.0654 0.7056
vn 0.7056 0.0654 0.7056
vn 0.7056 0.1939 -0.6816
vn 0.7056 0.1936 0.6816
vn 0.7056 0.1939 0.6815
vn 0.7056 0.3158 -0.6343
vn 0.7072 0.3724 -0.6010
vn 0.7056 0.3159 0.6343
vn 0.7056 0.4270 -0.5654
vn 0.7056 0.4270 0.5655
vn 1.0000 0.0001 0.0000
vn 0.7056 0.5237 -0.4774
vn 0.7056 0.5236 0.4774
vn 1.0000 0.0004 0.0000
vn 0.7056 0.6025 -0.3730
vn 0.7056 0.6608 -0.2558
vn 0.7056 0.6025 0.3730
vn 0.7056 0.6607 -0.2560
vn 0.7056 0.6608 0.2560
vn 0.7056 0.6966 -0.1302
vn 0.7056 0.6965 0.1302
vn 0.7056 0.7086 0.0000
vn 0.0000 -0.9830 0.1837
vn 0.0000 -1.0000 0.0000
vn -0.0000 -0.9830 -0.1837
vn 0.0000 -0.9325 0.3612
vn 0.0000 -0.9325 -0.3612
vn 0.0000 -0.8502 0.5264
vn 0.0000 -0.8502 -0.5264
vn 0.0000 -0.7390 0.6737
vn -0.0000 -0.7390 -0.6737
vn 0.0000 -0.6026 0.7980
vn 0.0000 -0.6026 -0.7980
vn 0.0000 -0.4457 0.8952
vn 0.0000 -0.4457 -0.8952
vn 0.0000 -0.2737 0.9618
vn 0.0000 -0.2737 -0.9618
vn 0.0000 -0.0923 0.9957
vn 0.0000 -0.0923 -0.9957
vn 0.0000 0.0923 0.9957
vn 0.0000 0.0923 -0.9957
vn 0.0000 0.2737 0.9618
vn 0.0000 0.2737 -0.9618
vn 0.0000 0.4457 0.8952
vn 0.0000 0.4457 -0.8952
vn 0.0000 0.6026 0.7980
vn 0.0000 0.6026 -0.7980
vn 0.0000 0.7390 0.6737
vn -0.0000 0.7390 -0.6737
vn 0.0000 0.8502 0.5264
vn 0.0000 0.8502 -0.5264
vn 0.0000 0.9325 0.3612
vn 0.0000 0.9325 -0.3612
vn 0.0000 0.9830 0.1837
vn -0.0000 0.9830 -0.1837
vn 0.0000 1.0000 0.0000
vn -0.8664 0.4325 0.2497
vn -0.8660 0.4330 -0.2500
vn -0.8667 0.0000 0.4989
vn -0.7083 0.3528 0.6114
vn -0.8946 -0.2234 -0.3871
vn -0.8660 0.0000 -0.5000
vn -0.8660 -0.4330 0.2500
vn -0.8660 -0.4330 -0.2500
vn -0.0000 0.8660 -0.5000
vn 0.0000 0.8660 0.5000
vn -0.0000 0.0000 -1.0000
vn 0.0000 0.0000 1.0000
vn -0.0000 -0.8660 -0.5000
vn 0.0000 -0.8660 0.5000
vn -0.7056 -0.7086 0.0000
vn -0.7056 -0.6966 0.1302
vn -0.7056 -0.6966 -0.1302
vn -0.7056 -0.6608 0.2560
vn -0.7056 -0.6608 -0.2560
vn -0.7056 -0.6025 0.3730
vn -0.7056 -0.6025 -0.3730
vn -0.7056 -0.5237 0.4774
vn -0.7056 -0.5237 -0.4774
vn -0.7056 -0.4270 0.5655
vn -0.7056 -0.4270 -0.5655
vn -0.7056 -0.3159 0.6343
vn -0.7056 -0.3159 -0.6343
vn -0.7056 -0.1939 0.6816
vn -0.7056 -0.1939 -0.6816
vn -0.7056 -0.0654 0.7056
vn -0.7056 -0.0654 -0.7056
vn -0.7056 0.0654 -0.7056
vn -0.7056 0.0654 0.7056
vn -0.7056 0.1939 0.6816
vn -0.7056 0.1939 -0.6816
vn -0.7056 0.3159 0.6343
vn -0.7056 0.3159 -0.6343
vn -0.7056 0.4270 0.5655
vn -0.7056 0.4270 -0.5655
vn -0.7056 0.5237 0.4774
vn -0.7056 0.5237 -0.4774
vn -0.7056 0.6025 0.3730
vn -0.7056 0.6025 -0.3730
vn -0.7056 0.6608 0.2560
vn -0.7056 0.6608 -0.2560
vn -0.7056 0.6966 0.1302
vn -0.7056 0.6966 -0.1302
vn -0.7056 0.7086 0.0000
vn -1.0000 -0.0000 0.0000
usemtl None
s off
f 1//1 2//1 3//1
f 2//2 4//2 3//2
f 4//3 5//3 3//3
f 2//4 6//4 4//4
f 7//5 1//5 3//5
f 6//6 8//6 4//6
f 5//7 9//7 3//7
f 9//8 7//8 3//8
f 8//9 10//9 4//9
f 10//10 11//10 4//10
f 11//11 5//11 4//11
f 12//12 9//12 5//12
f 10//13 13//13 11//13
f 14//14 12//14 5//14
f 13//15 15//15 11//15
f 16//16 14//16 5//16
f 11//17 17//17 5//17
f 15//18 18//18 11//18
f 18//19 17//19 11//19
f 19//20 16//20 5//20
f 18//21 20//21 17//21
f 21//22 22//22 5//22
f 22//23 19//23 5//23
f 17//3 21//3 5//3
f 20//24 23//24 17//24
f 24//25 21//25 17//25
f 23//26 25//26 17//26
f 25//27 24//27 17//27
f 26//28 22//28 21//28
f 24//3 27//3 21//3
f 28//29 26//29 21//29
f 25//30 29//30 24//30
f 27//3 30//3 21//3
f 30//31 31//31 21//31
f 31//32 28//32 21//32
f 29//33 32//33 24//33
f 32//34 27//34 24//34
f 33//35 31//35 30//35
f 32//36 34//36 27//36
f 35//37 33//37 30//37
f 36//38 30//38 27//38
f 34//39 37//39 27//39
f 36//40 38//40 30//40
f 38//40 35//40 30//40
f 39//41 36//41 27//41
f 37//42 40//42 27//42
f 40//43 39//43 27//43
f 41//44 38//44 36//44
f 40//45 42//45 39//45
f 43//46 41//46 36//46
f 42//47 44//47 39//47
f 39//48 45//48 36//48
f 45//48 43//48 36//48
f 44//49 45//49 39//49
f 7//50 46//50 1//50
f 46//51 47//51 1//51
f 47//51 2//51 1//51
f 47//52 48//52 2//52
f 48//52 6//52 2//52
f 9//53 49//53 7//53
f 49//50 46//50 7//50
f 48//54 50//54 6//54
f 50//54 8//54 6//54
f 12//55 51//55 9//55
f 51//53 49//53 9//53
f 50//56 52//56 8//56
f 52//56 10//56 8//56
f 14//57 53//57 12//57
f 53//55 51//55 12//55
f 52//58 54//58 10//58
f 54//58 13//58 10//58
f 16//59 55//59 14//59
f 55//57 53//57 14//57
f 54//60 56//60 13//60
f 56//60 15//60 13//60
f 19//61 57//61 16//61
f 57//59 55//59 16//59
f 56//62 58//62 15//62
f 58//62 18//62 15//62
f 22//63 59//63 19//63
f 59//61 57//61 19//61
f 58//64 60//64 18//64
f 60//64 20//64 18//64
f 26//65 61//65 22//65
f 61//63 59//63 22//63
f 60//66 62//66 20//66
f 62//66 23//66 20//66
f 63//65 61//65 26//65
f 28//67 63//67 26//67
f 62//68 64//68 23//68
f 64//68 25//68 23//68
f 31//69 65//69 28//69
f 65//67 63//67 28//67
f 64//70 66//70 25//70
f 66//70 29//70 25//70
f 33//71 67//71 31//71
f 67//69 65//69 31//69
f 66//72 68//72 29//72
f 68//72 32//72 29//72
f 35//73 69//73 33//73
f 69//71 67//71 33//71
f 68//74 70//74 32//74
f 70//74 34//74 32//74
f 38//75 71//75 35//75
f 71//73 69//73 35//73
f 70//76 72//76 34//76
f 72//76 37//76 34//76
f 41//77 73//77 38//77
f 73//75 71//75 38//75
f 72//78 74//78 37//78
f 74//78 40//78 37//78
f 43//79 75//79 41//79
f 75//77 73//77 41//77
f 74//80 76//80 40//80
f 76//80 42//80 40//80
f 45//81 77//81 43//81
f 77//79 75//79 43//79
f 76//82 78//82 42//82
f 78//82 44//82 42//82
f 44//83 79//83 45//83
f 79//81 77//81 45//81
f 78//83 79//83 44//83
f 80//84 81//84 82//84
f 81//85 83//85 82//85
f 84//86 80//86 82//86
f 85//87 84//87 82//87
f 86//88 85//88 82//88
f 83//89 86//89 82//89
f 87//90 84//90 85//90
f 86//91 87//91 85//91
f 88//92 83//92 81//92
f 80//93 89//93 81//93
f 89//93 88//93 81//93
f 88//92 90//92 83//92
f 90//94 86//94 83//94
f 84//95 91//95 80//95
f 91//95 89//95 80//95
f 92//96 87//96 86//96
f 90//94 92//94 86//94
f 87//97 93//97 84//97
f 93//97 91//97 84//97
f 92//96 93//96 87//96
f 94//98 47//98 46//98
f 95//98 94//98 46//98
f 49//99 95//99 46//99
f 96//100 48//100 47//100
f 94//100 96//100 47//100
f 97//99 95//99 49//99
f 51//101 97//101 49//101
f 98//102 50//102 48//102
f 96//102 98//102 48//102
f 99//101 97//101 51//101
f 53//103 99//103 51//103
f 100//104 52//104 50//104
f 98//104 100//104 50//104
f 101//103 99//103 53//103
f 55//105 101//105 53//105
f 102//106 54//106 52//106
f 100//106 102//106 52//106
f 103//105 101//105 55//105
f 57//107 103//107 55//107
f 104//108 56//108 54//108
f 102//108 104//108 54//108
f 105//107 103//107 57//107
f 59//109 105//109 57//109
f 106//110 58//110 56//110
f 104//110 106//110 56//110
f 107//109 105//109 59//109
f 61//111 107//111 59//111
f 108//112 60//112 58//112
f 106//112 108//112 58//112
f 109//111 107//111 61//111
f 63//113 109//113 61//113
f 110//114 62//114 60//114
f 108//114 110//114 60//114
f 111//115 64//115 62//115
f 110//115 111//115 62//115
f 65//116 112//116 63//116
f 112//113 109//113 63//113
f 113//116 112//116 65//116
f 67//117 113//117 65//117
f 114//118 66//118 64//118
f 111//118 114//118 64//118
f 115//117 113//117 67//117
f 69//119 115//119 67//119
f 116//120 68//120 66//120
f 114//120 116//120 66//120
f 117//119 115//119 69//119
f 71//121 117//121 69//121
f 118//122 70//122 68//122
f 116//122 118//122 68//122
f 119//121 117//121 71//121
f 73//123 119//123 71//123
f 120//124 72//124 70//124
f 118//124 120//124 70//124
f 121//123 119//123 73//123
f 75//125 121//125 73//125
f 122//126 74//126 72//126
f 120//126 122//126 72//126
f 123//125 121//125 75//125
f 77//127 123//127 75//127
f 124//128 76//128 74//128
f 122//128 124//128 74//128
f 125//127 123//127 77//127
f 79//129 125//129 77//129
f 126//130 78//130 76//130
f 124//130 126//130 76//130
f 127//129 125//129 79//129
f 78//131 127//131 79//131
f 126//131 127//131 78//131
f 88//132 94//132 95//132
f 97//132 88//132 95//132
f 88//132 96//132 94//132
f 99//132 88//132 97//132
f 88//132 98//132 96//132
f 90//132 88//132 99//132
f 101//132 90//132 99//132
f 88//132 100//132 98//132
f 103//132 90//132 101//132
f 89//132 102//132 100//132
f 88//132 89//132 100//132
f 105//132 90//132 103//132
f 89//132 104//132 102//132
f 107//132 90//132 105//132
f 89//132 106//132 104//132
f 107//132 109//132 90//132
f 109//132 112//132 90//132
f 112//132 92//132 90//132
f 108//132 106//132 89//132
f 91//132 111//132 89//132
f 111//132 110//132 89//132
f 110//132 108//132 89//132
f 113//132 92//132 112//132
f 115//132 92//132 113//132
f 91//132 114//132 111//132
f 117//132 92//132 115//132
f 91//132 116//132 114//132
f 117//132 119//132 92//132
f 119//132 121//132 92//132
f 121//132 93//132 92//132
f 118//132 116//132 91//132
f 93//132 122//132 91//132
f 122//132 120//132 91//132
f 120//132 118//132 91//132
f 127//132 126//132 93//132
f 125//132 127//132 93//132
f 121//132 123//132 93//132
f 123//132 125//132 93//132
f 126//132 124//132 93//132
f 124//132 122//132 93//132
