# Blender v2.80 (sub 75) OBJ File: ''
# www.blender.org
mtllib Bar.mtl
o Parte1
v -3.627213 -0.037500 -0.157340
v -3.627213 -0.037500 0.213480
v -3.656579 -0.037500 0.028070
v -3.627213 0.037500 -0.157340
v -3.656579 0.037500 0.028070
v -3.627213 0.037500 0.213480
v -3.541989 -0.037500 -0.324601
v -3.456579 -0.037500 0.466151
v -3.541989 -0.037500 0.380741
v -3.541989 0.037500 -0.324601
v -3.456579 0.037500 0.466151
v -3.541989 0.037500 0.380741
v -3.494661 -0.037500 -0.371930
v -3.456579 -0.037500 -0.371930
v -3.494661 0.037500 -0.371930
v -3.456579 -0.037500 -0.410011
v -3.456579 0.037500 -0.371930
v -3.456579 0.037500 -0.410011
v -3.409250 -0.037500 -0.457340
v -2.426579 -0.037500 -0.371930
v -3.056579 -0.037500 -0.171930
v -3.156579 -0.037500 -0.145135
v -3.229784 -0.037500 -0.071930
v -3.256579 -0.037500 0.028070
v -3.229784 -0.037500 0.128070
v -3.409250 -0.037500 0.513480
v -3.409250 0.037500 0.513480
v -3.409250 0.037500 -0.457340
v -3.256579 0.037500 0.028070
v -3.229784 0.037500 -0.071930
v -3.056579 0.037500 -0.171930
v -2.426579 0.037500 -0.371930
v -3.156579 0.037500 -0.145135
v -3.156579 0.037500 0.201275
v -3.229784 0.037500 0.128070
v -3.241990 -0.037500 -0.542564
v -3.241990 0.037500 -0.542564
v -3.156579 -0.037500 0.201275
v -3.241990 -0.037500 0.598704
v -3.241990 0.037500 0.598704
v -3.056579 -0.037500 -0.571930
v -3.056579 0.037500 -0.571930
v -3.056579 -0.037500 0.228070
v -3.056579 -0.037500 0.628070
v -3.056579 0.037500 0.228070
v -3.056579 0.037500 0.628070
v -2.426579 -0.037500 -0.571930
v -2.956579 -0.037500 -0.145135
v -2.956579 0.037500 -0.145135
v -2.956579 -0.037500 0.201275
v -2.426579 -0.037500 0.628070
v -2.426579 0.037500 0.628070
v -2.426579 0.037500 -0.571930
v -2.956579 0.037500 0.201275
v -2.883374 -0.037500 -0.071930
v -2.883374 0.037500 -0.071930
v -2.883374 -0.037500 0.128070
v -2.883374 0.037500 0.128070
v -2.856579 -0.037500 0.028070
v -2.856579 0.037500 0.028070
v -1.166579 -0.037500 -0.571930
v -1.796579 -0.037500 -0.171930
v -1.896579 -0.037500 -0.145135
v -1.166579 -0.037500 -0.371930
v -1.969784 -0.037500 -0.071930
v -1.996579 -0.037500 0.028070
v -1.969784 -0.037500 0.128070
v -1.896579 -0.037500 0.201275
v -1.796579 -0.037500 0.228070
v -1.166579 -0.037500 0.628070
v -1.166579 0.037500 0.628070
v -1.166579 0.037500 -0.571930
v -1.969784 0.037500 0.128070
v -1.996579 0.037500 0.028070
v -1.969784 0.037500 -0.071930
v -1.896579 0.037500 -0.145135
v -1.796579 0.037500 -0.171930
v -1.166579 0.037500 -0.371930
v -1.796579 0.037500 0.228070
v -1.896579 0.037500 0.201275
v -1.696579 -0.037500 -0.145135
v -1.696579 0.037500 -0.145135
v -1.696579 -0.037500 0.201275
v -1.696579 0.037500 0.201275
v -1.623374 -0.037500 -0.071930
v -1.623374 0.037500 -0.071930
v -1.623374 -0.037500 0.128070
v -1.623374 0.037500 0.128070
v -1.596579 -0.037500 0.028070
v -1.596579 0.037500 0.028070
v 0.093422 -0.037500 -0.571930
v 0.093422 -0.037500 -0.371930
v -0.536578 -0.037500 -0.171930
v -0.636579 -0.037500 -0.145135
v -0.709784 -0.037500 -0.071930
v -0.736579 -0.037500 0.028070
v -0.636579 -0.037500 0.201275
v -0.536578 -0.037500 0.228070
v 0.093422 -0.037500 0.628070
v -0.709784 -0.037500 0.128070
v 0.093422 0.037500 0.628070
v 0.093422 0.037500 -0.571930
v -0.709784 0.037500 0.128070
v -0.736579 0.037500 0.028070
v -0.709784 0.037500 -0.071930
v -0.536578 0.037500 -0.171930
v 0.093422 0.037500 -0.371930
v -0.636579 0.037500 -0.145135
v -0.536578 0.037500 0.228070
v -0.636579 0.037500 0.201275
v -0.436578 -0.037500 -0.145135
v -0.436578 0.037500 -0.145135
v -0.436578 -0.037500 0.201275
v -0.436578 0.037500 0.201275
v -0.363373 -0.037500 -0.071930
v -0.363373 0.037500 -0.071930
v -0.363373 -0.037500 0.128070
v -0.363373 0.037500 0.128070
v -0.336578 -0.037500 0.028070
v -0.336578 0.037500 0.028070
v 1.353422 -0.037500 -0.571930
v 0.550217 -0.037500 -0.071930
v 0.523422 -0.037500 0.028070
v 1.353422 -0.037500 -0.371930
v 0.723422 -0.037500 -0.171930
v 0.623422 -0.037500 -0.145135
v 0.550217 -0.037500 0.128070
v 0.623422 -0.037500 0.201275
v 0.723422 -0.037500 0.228070
v 1.353422 -0.037500 0.628070
v 1.353422 0.037500 0.628070
v 1.353422 0.037500 -0.571930
v 0.550217 0.037500 0.128070
v 0.523422 0.037500 0.028070
v 0.550217 0.037500 -0.071930
v 0.623422 0.037500 -0.145135
v 0.723422 0.037500 -0.171930
v 1.353422 0.037500 -0.371930
v 0.723422 0.037500 0.228070
v 0.623422 0.037500 0.201275
v 0.823422 -0.037500 -0.145135
v 0.823422 0.037500 -0.145135
v 0.823422 -0.037500 0.201275
v 0.823422 0.037500 0.201275
v 0.896627 -0.037500 -0.071930
v 0.896627 0.037500 -0.071930
v 0.896627 -0.037500 0.128070
v 0.896627 0.037500 0.128070
v 0.923422 -0.037500 0.028070
v 0.923422 0.037500 0.028070
v 2.613422 -0.037500 -0.571930
v 1.810217 -0.037500 -0.071930
v 1.783422 -0.037500 0.028070
v 2.613422 -0.037500 -0.371930
v 1.983422 -0.037500 -0.171930
v 1.883422 -0.037500 -0.145135
v 1.810217 -0.037500 0.128070
v 1.883422 -0.037500 0.201275
v 1.983422 -0.037500 0.228070
v 2.613422 -0.037500 0.628070
v 2.613422 0.037500 0.628070
v 2.613422 0.037500 -0.571930
v 1.810217 0.037500 0.128070
v 1.783422 0.037500 0.028070
v 1.810217 0.037500 -0.071930
v 1.883422 0.037500 -0.145135
v 1.983422 0.037500 -0.171930
v 2.613422 0.037500 -0.371930
v 1.883422 0.037500 0.201275
v 1.983422 0.037500 0.228070
v 2.083422 -0.037500 -0.145135
v 2.083422 0.037500 -0.145135
v 2.083422 -0.037500 0.201275
v 2.083422 0.037500 0.201275
v 2.156627 -0.037500 -0.071930
v 2.156627 0.037500 -0.071930
v 2.156627 -0.037500 0.128070
v 2.156627 0.037500 0.128070
v 2.183422 -0.037500 0.028070
v 2.183422 0.037500 0.028070
v 3.243422 -0.037500 -0.571930
v 3.243422 -0.037500 -0.171930
v 3.143422 -0.037500 -0.145135
v 3.070218 -0.037500 -0.071930
v 3.043422 -0.037500 0.028070
v 3.681503 -0.037500 -0.371930
v 3.596094 -0.037500 -0.457340
v 3.428833 -0.037500 -0.542564
v 3.070218 -0.037500 0.128070
v 3.143422 -0.037500 0.201275
v 3.243422 -0.037500 0.628070
v 3.243422 0.037500 0.628070
v 3.243422 0.037500 -0.571930
v 3.596094 0.037500 -0.457340
v 3.428833 0.037500 -0.542564
v 3.681503 0.037500 -0.371930
v 3.070218 0.037500 0.128070
v 3.043422 0.037500 0.028070
v 3.070218 0.037500 -0.071930
v 3.143422 0.037500 -0.145135
v 3.243422 0.037500 -0.171930
v 3.243422 0.037500 0.228070
v 3.143422 0.037500 0.201275
v 3.243422 -0.037500 0.228070
v 3.343422 -0.037500 -0.145135
v 3.343422 0.037500 -0.145135
v 3.428833 -0.037500 0.598704
v 3.343422 -0.037500 0.201275
v 3.428833 0.037500 0.598704
v 3.343422 0.037500 0.201275
v 3.416628 -0.037500 -0.071930
v 3.416628 0.037500 -0.071930
v 3.416628 -0.037500 0.128070
v 3.728833 -0.037500 0.380742
v 3.596094 -0.037500 0.513481
v 3.728833 0.037500 -0.324601
v 3.596094 0.037500 0.513481
v 3.416628 0.037500 0.128070
v 3.728833 -0.037500 -0.324601
v 3.814057 -0.037500 -0.157340
v 3.443422 -0.037500 0.028070
v 3.443422 0.037500 0.028070
v 3.814057 -0.037500 0.213481
v 3.814057 0.037500 -0.157340
v 3.728833 0.037500 0.380742
v 3.814057 0.037500 0.213481
v 3.843422 -0.037500 0.028070
v 3.843422 0.037500 0.028070
vn 0.0000 -1.0000 0.0000
vn -0.9877 0.0000 -0.1564
vn -0.9877 0.0000 0.1564
vn 0.0000 1.0000 0.0000
vn -0.8910 0.0000 -0.4540
vn -0.8910 0.0000 0.4540
vn -0.7071 0.0000 -0.7071
vn -0.7071 0.0000 0.7071
vn -0.4540 0.0000 -0.8910
vn -0.4540 0.0000 0.8910
vn 0.9659 0.0000 -0.2588
vn 0.9659 0.0000 0.2588
vn -0.1564 0.0000 -0.9877
vn -0.1564 0.0000 0.9877
vn 0.7071 0.0000 0.7071
vn 0.7071 0.0000 -0.7071
vn 0.2588 0.0000 0.9659
vn 0.2588 0.0000 -0.9659
vn 0.0000 0.0000 -1.0000
vn -0.2588 0.0000 0.9659
vn -0.2588 0.0000 -0.9659
vn 0.0000 0.0000 1.0000
vn -0.9659 0.0000 0.2588
vn -0.9659 0.0000 -0.2588
vn 0.1564 0.0000 -0.9877
vn 0.1564 0.0000 0.9877
vn 0.4540 0.0000 -0.8910
vn 0.4540 0.0000 0.8910
vn 0.8910 0.0000 -0.4540
vn 0.8910 0.0000 0.4540
vn 0.9877 0.0000 -0.1564
vn 0.9877 0.0000 0.1564
usemtl None
s off
f 1//1 2//1 3//1
f 4//2 1//2 3//2
f 5//2 4//2 3//2
f 2//3 5//3 3//3
f 6//4 4//4 5//4
f 2//3 6//3 5//3
f 7//1 8//1 1//1
f 8//1 9//1 1//1
f 9//1 2//1 1//1
f 10//5 7//5 1//5
f 4//5 10//5 1//5
f 9//6 6//6 2//6
f 11//4 10//4 4//4
f 6//4 12//4 4//4
f 12//4 11//4 4//4
f 9//6 12//6 6//6
f 13//1 14//1 7//1
f 14//1 8//1 7//1
f 10//7 13//7 7//7
f 11//8 12//8 9//8
f 8//8 11//8 9//8
f 11//4 15//4 10//4
f 15//7 13//7 10//7
f 16//1 14//1 13//1
f 15//7 16//7 13//7
f 11//4 17//4 15//4
f 17//4 18//4 15//4
f 18//7 16//7 15//7
f 19//1 20//1 16//1
f 20//1 14//1 16//1
f 18//7 19//7 16//7
f 21//1 22//1 14//1
f 20//1 21//1 14//1
f 22//1 23//1 14//1
f 23//1 24//1 14//1
f 24//1 8//1 14//1
f 24//1 25//1 8//1
f 25//1 26//1 8//1
f 27//8 11//8 8//8
f 26//8 27//8 8//8
f 17//4 28//4 18//4
f 28//7 19//7 18//7
f 29//4 30//4 17//4
f 31//4 32//4 17//4
f 33//4 31//4 17//4
f 30//4 33//4 17//4
f 11//4 29//4 17//4
f 32//4 28//4 17//4
f 34//4 35//4 11//4
f 35//4 29//4 11//4
f 27//4 34//4 11//4
f 36//1 20//1 19//1
f 37//9 36//9 19//9
f 28//9 37//9 19//9
f 25//1 38//1 26//1
f 38//1 39//1 26//1
f 39//10 27//10 26//10
f 32//4 37//4 28//4
f 40//4 34//4 27//4
f 39//10 40//10 27//10
f 29//11 25//11 24//11
f 30//12 29//12 24//12
f 23//12 30//12 24//12
f 35//11 25//11 29//11
f 41//1 20//1 36//1
f 42//13 41//13 36//13
f 37//13 42//13 36//13
f 38//1 43//1 39//1
f 43//1 44//1 39//1
f 44//14 40//14 39//14
f 32//4 42//4 37//4
f 45//4 34//4 40//4
f 46//4 45//4 40//4
f 44//14 46//14 40//14
f 33//15 30//15 23//15
f 22//15 33//15 23//15
f 35//16 38//16 25//16
f 34//16 38//16 35//16
f 31//17 33//17 22//17
f 21//17 31//17 22//17
f 34//18 43//18 38//18
f 45//18 43//18 34//18
f 47//1 20//1 41//1
f 42//19 47//19 41//19
f 20//1 48//1 21//1
f 49//20 31//20 21//20
f 48//20 49//20 21//20
f 50//1 51//1 43//1
f 51//1 44//1 43//1
f 45//21 50//21 43//21
f 51//22 52//22 44//22
f 52//22 46//22 44//22
f 32//4 53//4 42//4
f 53//19 47//19 42//19
f 49//4 32//4 31//4
f 46//4 54//4 45//4
f 54//21 50//21 45//21
f 52//4 54//4 46//4
f 20//1 55//1 48//1
f 56//8 49//8 48//8
f 55//8 56//8 48//8
f 57//1 51//1 50//1
f 54//7 57//7 50//7
f 56//4 32//4 49//4
f 52//4 58//4 54//4
f 58//7 57//7 54//7
f 20//1 59//1 55//1
f 60//23 56//23 55//23
f 59//23 60//23 55//23
f 20//1 51//1 57//1
f 59//1 20//1 57//1
f 58//24 59//24 57//24
f 60//4 32//4 56//4
f 52//4 60//4 58//4
f 60//24 59//24 58//24
f 52//4 32//4 60//4
f 61//1 20//1 47//1
f 53//19 61//19 47//19
f 62//1 63//1 20//1
f 64//1 62//1 20//1
f 63//1 65//1 20//1
f 65//1 66//1 20//1
f 66//1 51//1 20//1
f 61//1 64//1 20//1
f 66//1 67//1 51//1
f 67//1 68//1 51//1
f 68//1 69//1 51//1
f 69//1 70//1 51//1
f 70//22 71//22 51//22
f 71//22 52//22 51//22
f 32//4 72//4 53//4
f 72//19 61//19 53//19
f 52//4 73//4 32//4
f 73//4 74//4 32//4
f 74//4 75//4 32//4
f 75//4 76//4 32//4
f 76//4 77//4 32//4
f 77//4 78//4 32//4
f 78//4 72//4 32//4
f 71//4 79//4 52//4
f 79//4 80//4 52//4
f 80//4 73//4 52//4
f 74//11 67//11 66//11
f 75//12 74//12 66//12
f 65//12 75//12 66//12
f 73//11 67//11 74//11
f 76//15 75//15 65//15
f 63//15 76//15 65//15
f 73//16 68//16 67//16
f 80//16 68//16 73//16
f 77//17 76//17 63//17
f 62//17 77//17 63//17
f 80//18 69//18 68//18
f 79//18 69//18 80//18
f 64//1 81//1 62//1
f 82//20 77//20 62//20
f 81//20 82//20 62//20
f 83//1 70//1 69//1
f 79//21 83//21 69//21
f 82//4 78//4 77//4
f 71//4 84//4 79//4
f 84//21 83//21 79//21
f 64//1 85//1 81//1
f 86//8 82//8 81//8
f 85//8 86//8 81//8
f 87//1 70//1 83//1
f 84//7 87//7 83//7
f 86//4 78//4 82//4
f 71//4 88//4 84//4
f 88//7 87//7 84//7
f 64//1 89//1 85//1
f 90//23 86//23 85//23
f 89//23 90//23 85//23
f 64//1 70//1 87//1
f 89//1 64//1 87//1
f 88//24 89//24 87//24
f 90//4 78//4 86//4
f 71//4 90//4 88//4
f 90//24 89//24 88//24
f 71//4 78//4 90//4
f 91//1 64//1 61//1
f 72//19 91//19 61//19
f 92//1 93//1 64//1
f 93//1 94//1 64//1
f 94//1 95//1 64//1
f 95//1 96//1 64//1
f 96//1 70//1 64//1
f 91//1 92//1 64//1
f 97//1 98//1 70//1
f 98//1 99//1 70//1
f 96//1 100//1 70//1
f 100//1 97//1 70//1
f 99//22 101//22 70//22
f 101//22 71//22 70//22
f 78//4 102//4 72//4
f 102//19 91//19 72//19
f 71//4 103//4 78//4
f 103//4 104//4 78//4
f 104//4 105//4 78//4
f 106//4 107//4 78//4
f 108//4 106//4 78//4
f 105//4 108//4 78//4
f 107//4 102//4 78//4
f 101//4 109//4 71//4
f 109//4 110//4 71//4
f 110//4 103//4 71//4
f 104//11 100//11 96//11
f 105//12 104//12 96//12
f 95//12 105//12 96//12
f 103//11 100//11 104//11
f 108//15 105//15 95//15
f 94//15 108//15 95//15
f 103//16 97//16 100//16
f 110//16 97//16 103//16
f 106//17 108//17 94//17
f 93//17 106//17 94//17
f 110//18 98//18 97//18
f 109//18 98//18 110//18
f 92//1 111//1 93//1
f 112//20 106//20 93//20
f 111//20 112//20 93//20
f 113//1 99//1 98//1
f 109//21 113//21 98//21
f 112//4 107//4 106//4
f 101//4 114//4 109//4
f 114//21 113//21 109//21
f 92//1 115//1 111//1
f 116//8 112//8 111//8
f 115//8 116//8 111//8
f 117//1 99//1 113//1
f 114//7 117//7 113//7
f 116//4 107//4 112//4
f 101//4 118//4 114//4
f 118//7 117//7 114//7
f 92//1 119//1 115//1
f 120//23 116//23 115//23
f 119//23 120//23 115//23
f 119//1 92//1 117//1
f 92//1 99//1 117//1
f 118//24 119//24 117//24
f 120//4 107//4 116//4
f 101//4 120//4 118//4
f 120//24 119//24 118//24
f 101//4 107//4 120//4
f 121//1 92//1 91//1
f 102//19 121//19 91//19
f 122//1 123//1 92//1
f 123//1 99//1 92//1
f 124//1 125//1 92//1
f 125//1 126//1 92//1
f 126//1 122//1 92//1
f 121//1 124//1 92//1
f 123//1 127//1 99//1
f 127//1 128//1 99//1
f 128//1 129//1 99//1
f 129//1 130//1 99//1
f 130//22 131//22 99//22
f 131//22 101//22 99//22
f 107//4 132//4 102//4
f 132//19 121//19 102//19
f 101//4 133//4 107//4
f 133//4 134//4 107//4
f 134//4 135//4 107//4
f 135//4 136//4 107//4
f 136//4 137//4 107//4
f 137//4 138//4 107//4
f 138//4 132//4 107//4
f 131//4 139//4 101//4
f 139//4 140//4 101//4
f 140//4 133//4 101//4
f 134//11 127//11 123//11
f 135//12 134//12 123//12
f 122//12 135//12 123//12
f 133//11 127//11 134//11
f 136//15 135//15 122//15
f 126//15 136//15 122//15
f 133//16 128//16 127//16
f 140//16 128//16 133//16
f 137//17 136//17 126//17
f 125//17 137//17 126//17
f 140//18 129//18 128//18
f 139//18 129//18 140//18
f 124//1 141//1 125//1
f 142//20 137//20 125//20
f 141//20 142//20 125//20
f 143//1 130//1 129//1
f 139//21 143//21 129//21
f 142//4 138//4 137//4
f 131//4 144//4 139//4
f 144//21 143//21 139//21
f 124//1 145//1 141//1
f 146//8 142//8 141//8
f 145//8 146//8 141//8
f 147//1 130//1 143//1
f 144//7 147//7 143//7
f 146//4 138//4 142//4
f 131//4 148//4 144//4
f 148//7 147//7 144//7
f 124//1 149//1 145//1
f 150//23 146//23 145//23
f 149//23 150//23 145//23
f 149//1 124//1 147//1
f 124//1 130//1 147//1
f 148//24 149//24 147//24
f 150//4 138//4 146//4
f 131//4 150//4 148//4
f 150//24 149//24 148//24
f 131//4 138//4 150//4
f 151//1 124//1 121//1
f 132//19 151//19 121//19
f 152//1 153//1 124//1
f 153//1 130//1 124//1
f 154//1 155//1 124//1
f 155//1 156//1 124//1
f 156//1 152//1 124//1
f 151//1 154//1 124//1
f 153//1 157//1 130//1
f 157//1 158//1 130//1
f 158//1 159//1 130//1
f 159//1 160//1 130//1
f 160//22 161//22 130//22
f 161//22 131//22 130//22
f 138//4 162//4 132//4
f 162//19 151//19 132//19
f 163//4 164//4 138//4
f 164//4 165//4 138//4
f 165//4 166//4 138//4
f 166//4 167//4 138//4
f 167//4 168//4 138//4
f 131//4 163//4 138//4
f 168//4 162//4 138//4
f 169//4 163//4 131//4
f 170//4 169//4 131//4
f 161//4 170//4 131//4
f 164//11 157//11 153//11
f 165//12 164//12 153//12
f 152//12 165//12 153//12
f 163//11 157//11 164//11
f 166//15 165//15 152//15
f 156//15 166//15 152//15
f 163//16 158//16 157//16
f 169//16 158//16 163//16
f 167//17 166//17 156//17
f 155//17 167//17 156//17
f 169//18 159//18 158//18
f 170//18 159//18 169//18
f 154//1 171//1 155//1
f 172//20 167//20 155//20
f 171//20 172//20 155//20
f 173//1 160//1 159//1
f 170//21 173//21 159//21
f 172//4 168//4 167//4
f 161//4 174//4 170//4
f 174//21 173//21 170//21
f 154//1 175//1 171//1
f 176//8 172//8 171//8
f 175//8 176//8 171//8
f 177//1 160//1 173//1
f 174//7 177//7 173//7
f 176//4 168//4 172//4
f 161//4 178//4 174//4
f 178//7 177//7 174//7
f 154//1 179//1 175//1
f 180//23 176//23 175//23
f 179//23 180//23 175//23
f 154//1 160//1 177//1
f 179//1 154//1 177//1
f 178//24 179//24 177//24
f 180//4 168//4 176//4
f 161//4 180//4 178//4
f 180//24 179//24 178//24
f 161//4 168//4 180//4
f 181//1 154//1 151//1
f 162//19 181//19 151//19
f 182//1 183//1 154//1
f 183//1 184//1 154//1
f 184//1 185//1 154//1
f 186//1 182//1 154//1
f 187//1 186//1 154//1
f 188//1 187//1 154//1
f 185//1 160//1 154//1
f 181//1 188//1 154//1
f 185//1 189//1 160//1
f 189//1 190//1 160//1
f 190//1 191//1 160//1
f 191//22 192//22 160//22
f 192//22 161//22 160//22
f 168//4 193//4 162//4
f 193//19 181//19 162//19
f 194//4 195//4 168//4
f 196//4 194//4 168//4
f 161//4 197//4 168//4
f 197//4 198//4 168//4
f 198//4 199//4 168//4
f 199//4 200//4 168//4
f 200//4 201//4 168//4
f 201//4 196//4 168//4
f 195//4 193//4 168//4
f 192//4 202//4 161//4
f 202//4 203//4 161//4
f 203//4 197//4 161//4
f 198//11 189//11 185//11
f 199//12 198//12 185//12
f 184//12 199//12 185//12
f 197//11 189//11 198//11
f 200//15 199//15 184//15
f 183//15 200//15 184//15
f 197//16 190//16 189//16
f 203//16 190//16 197//16
f 201//17 200//17 183//17
f 182//17 201//17 183//17
f 204//1 191//1 190//1
f 203//18 204//18 190//18
f 202//18 204//18 203//18
f 195//25 188//25 181//25
f 193//25 195//25 181//25
f 186//1 205//1 182//1
f 206//20 201//20 182//20
f 205//20 206//20 182//20
f 207//1 191//1 204//1
f 208//1 207//1 204//1
f 202//21 208//21 204//21
f 207//26 192//26 191//26
f 206//4 196//4 201//4
f 192//4 209//4 202//4
f 209//4 210//4 202//4
f 210//21 208//21 202//21
f 207//26 209//26 192//26
f 186//1 211//1 205//1
f 212//8 206//8 205//8
f 211//8 212//8 205//8
f 213//1 214//1 208//1
f 215//1 207//1 208//1
f 214//1 215//1 208//1
f 210//7 213//7 208//7
f 216//4 196//4 206//4
f 212//4 216//4 206//4
f 209//4 217//4 210//4
f 217//4 218//4 210//4
f 218//7 213//7 210//7
f 186//1 219//1 211//1
f 219//1 220//1 211//1
f 220//1 221//1 211//1
f 222//23 212//23 211//23
f 221//23 222//23 211//23
f 221//1 223//1 213//1
f 223//1 214//1 213//1
f 218//24 221//24 213//24
f 224//4 216//4 212//4
f 222//4 224//4 212//4
f 217//4 225//4 218//4
f 225//4 226//4 218//4
f 226//4 222//4 218//4
f 222//24 221//24 218//24
f 194//27 187//27 188//27
f 195//27 194//27 188//27
f 215//28 209//28 207//28
f 215//28 217//28 209//28
f 220//1 227//1 221//1
f 227//1 223//1 221//1
f 228//4 224//4 222//4
f 226//4 228//4 222//4
f 194//16 186//16 187//16
f 214//15 217//15 215//15
f 196//16 186//16 194//16
f 214//15 225//15 217//15
f 196//16 219//16 186//16
f 216//16 219//16 196//16
f 224//29 220//29 219//29
f 216//29 224//29 219//29
f 223//30 225//30 214//30
f 223//30 226//30 225//30
f 228//31 227//31 220//31
f 224//31 228//31 220//31
f 227//32 226//32 223//32
f 227//32 228//32 226//32
