# Blender v2.80 (sub 75) OBJ File: ''
# www.blender.org
mtllib Obtuse.mtl
o Parte3.001
v -0.594722 0.159175 -0.588471
v -0.458919 0.129439 -0.600000
v -0.511952 0.076406 -0.600000
v -0.674311 0.238764 -0.554328
v -0.541689 0.212208 -0.588471
v -0.747660 0.312114 -0.498882
v -0.621278 0.291797 -0.554328
v -0.811952 0.376406 -0.424264
v -0.694627 0.365147 -0.498882
v -0.864715 0.429168 -0.333342
v -0.758919 0.429439 -0.424264
v -0.903921 0.468374 -0.229610
v -0.811682 0.482201 -0.333342
v -0.928064 0.492518 -0.117054
v -0.850888 0.521407 -0.229610
v -0.936216 0.500670 0.000000
v -0.875031 0.545550 -0.117054
v -0.883183 0.553703 0.000000
v -0.794795 0.359248 0.000000
v -0.928064 0.492518 0.117054
v -0.787132 0.351586 -0.064940
v -0.764975 0.329428 -0.122842
v -0.787132 0.351586 0.064940
v -0.903921 0.468374 0.229610
v -0.764975 0.329428 0.122843
v -0.864715 0.429168 0.333342
v -0.730723 0.295177 -0.167433
v -0.730723 0.295177 0.167433
v -0.811952 0.376405 0.424264
v -0.688090 0.252544 -0.193880
v -0.747660 0.312114 0.498882
v -0.741762 0.412281 0.000000
v -0.734099 0.404619 -0.064940
v -0.711942 0.382461 -0.122842
v -0.734099 0.404619 0.064940
v -0.677690 0.348210 -0.167433
v -0.711942 0.382461 0.122843
v -0.688090 0.252544 0.193880
v -0.674311 0.238764 0.554328
v -0.635057 0.305577 -0.193880
v -0.677690 0.348210 0.167434
v -0.588662 0.259181 -0.199317
v -0.641695 0.206148 -0.199317
v -0.635057 0.305577 0.193880
v -0.641695 0.206148 0.199317
v -0.594722 0.159175 0.588471
v -0.543532 0.214052 -0.183155
v -0.596565 0.161019 -0.183155
v -0.588662 0.259181 0.199317
v -0.596565 0.161019 0.183155
v -0.511952 0.076405 0.600000
v -0.504558 0.175078 -0.147145
v -0.557591 0.122045 -0.147145
v -0.543532 0.214052 0.183155
v -0.557591 0.122045 0.147145
v -0.875031 0.545550 0.117054
v -0.850888 0.521407 0.229610
v -0.811682 0.482201 0.333342
v -0.758919 0.429438 0.424264
v -0.694627 0.365147 0.498882
v -0.621278 0.291797 0.554328
v -0.541689 0.212208 0.588471
v -0.458919 0.129438 0.600000
v -0.180365 -0.255181 0.600000
v -0.475964 0.146483 -0.095189
v -0.528997 0.093450 -0.095189
v -0.504558 0.175078 0.147145
v -0.528997 0.093450 0.095190
v -0.180365 -0.255181 -0.600000
v -0.513881 0.078334 -0.032919
v -0.460848 0.131367 -0.032919
v -0.475964 0.146483 0.095190
v -0.513881 0.078334 0.032919
v -0.511952 0.076405 0.000000
v -0.460848 0.131367 0.032919
v -0.141977 -0.187503 0.600000
v -0.141977 -0.187503 -0.600000
v -0.156034 -0.271439 -0.600000
v -0.125756 -0.198342 0.600000
v -0.156034 -0.271439 0.600000
v -0.125756 -0.198342 -0.600000
v -0.127332 -0.277148 -0.600000
v -0.106622 -0.202148 0.600000
v -0.127332 -0.277148 0.600000
v 0.129798 -0.277148 -0.190211
v 0.074045 -0.277148 -0.161803
v 0.029798 -0.277148 -0.117557
v 0.001390 -0.277148 -0.061803
v -0.008398 -0.277148 -0.000000
v 0.541602 -0.277148 -0.600000
v 0.741602 -0.277148 -0.200000
v 0.191602 -0.277148 -0.200000
v -0.106622 -0.202148 -0.600000
v 0.001390 -0.277148 0.061803
v 0.029798 -0.277148 0.117557
v 0.074045 -0.277148 0.161803
v 0.129798 -0.277148 0.190211
v 0.191602 -0.277148 0.200000
v 0.541602 -0.277148 0.600000
v 0.541602 -0.202148 0.600000
v 0.029798 -0.202148 -0.117557
v 0.074045 -0.202148 -0.161803
v -0.008398 -0.202148 -0.000000
v 0.001390 -0.202148 -0.061803
v 0.129798 -0.202148 -0.190211
v 0.191602 -0.202148 -0.200000
v 0.541602 -0.202148 -0.600000
v 0.074045 -0.202148 0.161803
v 0.029798 -0.202148 0.117557
v 0.129798 -0.202148 0.190211
v 0.001390 -0.202148 0.061803
v 0.741602 -0.202148 0.200000
v 0.191602 -0.202148 0.200000
v 0.741602 -0.202148 -0.200000
v 0.741602 -0.277148 0.200000
v 0.658656 -0.277148 -0.588472
v 0.658656 -0.202148 -0.588472
v 0.658656 -0.277148 0.588471
v 0.658656 -0.202148 0.588471
v 0.771212 -0.277148 -0.554328
v 0.771212 -0.202148 -0.554328
v 0.771212 -0.277148 0.554328
v 0.771212 -0.202148 0.554328
v 0.803405 -0.277148 -0.190211
v 0.803405 -0.202148 -0.190211
v 0.874944 -0.277148 0.498882
v 0.803405 -0.277148 0.190211
v 0.874944 -0.277148 -0.498882
v 0.874944 -0.202148 -0.498882
v 0.965866 -0.277148 -0.424264
v 0.859159 -0.277148 -0.161804
v 0.859159 -0.202148 -0.161804
v 0.965866 -0.277148 0.424264
v 0.859159 -0.277148 0.161803
v 0.803405 -0.202148 0.190211
v 0.874944 -0.202148 0.498882
v 1.040483 -0.277148 -0.333342
v 0.903405 -0.277148 -0.117557
v 0.903405 -0.202148 -0.117557
v 0.903405 -0.277148 0.117557
v 1.095930 -0.277148 0.229610
v 1.040483 -0.277148 0.333342
v 0.859159 -0.202148 0.161803
v 0.965866 -0.202148 -0.424264
v 0.965866 -0.202148 0.424264
v 1.095930 -0.277148 -0.229610
v 0.931813 -0.277148 -0.061804
v 0.931813 -0.202148 -0.061804
v 0.931813 -0.277148 0.061803
v 1.130073 -0.277148 0.117054
v 0.903405 -0.202148 0.117557
v 1.130073 -0.277148 -0.117054
v 0.941602 -0.277148 -0.000000
v 0.941602 -0.202148 -0.000000
v 1.141602 -0.277148 -0.000000
v 0.931813 -0.202148 0.061803
v 1.095930 -0.202148 -0.229610
v 1.040484 -0.202148 -0.333342
v 1.040484 -0.202148 0.333342
v 1.130073 -0.202148 -0.117054
v 1.095930 -0.202148 0.229610
v 1.141602 -0.202148 -0.000000
v 1.130073 -0.202148 0.117054
vn -0.0693 0.0693 -0.9952
vn -0.2053 0.2053 -0.9569
vn -0.3333 0.3333 -0.8819
vn -0.4486 0.4486 -0.7730
vn -0.5466 0.5466 -0.6344
vn -0.6236 0.6236 -0.4714
vn -0.6767 0.6767 -0.2903
vn -0.7037 0.7037 -0.0980
vn -0.7071 -0.7071 -0.0000
vn 0.6975 -0.6975 -0.1646
vn 0.6975 -0.6975 0.1646
vn 0.6219 -0.6219 0.4759
vn 0.6219 -0.6219 -0.4759
vn 0.4789 -0.4789 0.7357
vn 0.4789 -0.4789 -0.7357
vn 0.2840 -0.2840 0.9158
vn 0.2840 -0.2840 -0.9158
vn 0.0584 -0.0584 0.9966
vn 0.0584 -0.0584 -0.9966
vn -0.1736 0.1736 0.9694
vn -0.1736 0.1736 -0.9694
vn -0.3868 0.3868 0.8372
vn -0.3867 0.3868 -0.8372
vn -0.3867 0.3867 -0.8372
vn -0.7037 0.7037 0.0980
vn -0.6767 0.6767 0.2903
vn -0.6236 0.6236 0.4714
vn -0.5466 0.5466 0.6344
vn -0.4486 0.4486 0.7730
vn -0.3333 0.3333 0.8819
vn -0.2053 0.2053 0.9569
vn -0.0693 0.0693 0.9952
vn -0.5580 0.5580 0.6142
vn -0.5580 0.5580 -0.6142
vn -0.6688 0.6688 0.3247
vn -0.6688 0.6688 -0.3247
vn -0.7047 0.7047 0.0826
vn -0.7047 0.7047 -0.0826
vn -0.7323 0.6809 0.0000
vn 0.0000 0.0000 -1.0000
vn -0.0000 -0.0000 1.0000
vn -0.5556 -0.8315 -0.0000
vn -0.1951 -0.9808 -0.0000
vn -0.0000 -1.0000 0.0000
vn 0.7071 0.7071 -0.0000
vn 0.5556 0.8315 0.0000
vn 0.1951 0.9808 0.0000
vn 0.0000 1.0000 0.0000
vn 0.9877 -0.0000 0.1564
vn 0.9877 0.0000 -0.1564
vn 0.8910 -0.0000 0.4540
vn 0.8910 0.0000 -0.4540
vn 0.7071 -0.0000 0.7071
vn 0.7071 0.0000 -0.7071
vn 0.4540 -0.0000 0.8910
vn 0.4540 0.0000 -0.8910
vn 0.1564 -0.0000 0.9877
vn 0.1564 0.0000 -0.9877
vn 0.0980 -0.0000 -0.9952
vn 0.0980 -0.0000 0.9952
vn 0.2903 -0.0000 -0.9569
vn 0.2903 -0.0000 0.9569
vn -0.1564 -0.0000 0.9877
vn -0.1564 0.0000 -0.9877
vn 0.4714 0.0000 -0.8819
vn 0.4714 -0.0000 0.8819
vn -0.4540 0.0000 0.8910
vn -0.4540 0.0000 -0.8910
vn -0.7071 -0.0000 0.7071
vn -0.7071 0.0000 -0.7071
vn 0.6344 0.0000 -0.7730
vn 0.6344 -0.0000 0.7730
vn -0.8910 0.0000 0.4540
vn -0.8910 0.0000 -0.4540
vn -0.9877 0.0000 0.1564
vn -0.9877 0.0000 -0.1564
vn 0.7730 -0.0000 -0.6344
vn 0.7730 -0.0000 0.6344
vn 0.8819 0.0000 -0.4714
vn 0.8819 0.0000 0.4714
vn 0.9569 0.0000 -0.2903
vn 0.9569 0.0000 0.2903
vn 0.9952 0.0000 -0.0980
vn 0.9952 0.0000 0.0980
usemtl None.001
s 1
f 1//1 2//1 3//1
f 4//2 5//2 1//2
f 5//1 2//1 1//1
f 6//3 7//3 4//3
f 7//2 5//2 4//2
f 8//4 9//4 6//4
f 9//3 7//3 6//3
f 10//5 11//5 8//5
f 11//4 9//4 8//4
f 12//6 13//6 10//6
f 13//5 11//5 10//5
f 14//7 15//7 12//7
f 15//6 13//6 12//6
f 16//8 17//8 14//8
f 17//7 15//7 14//7
f 18//8 17//8 16//8
f 19//9 20//9 16//9
f 21//9 19//9 16//9
f 14//9 21//9 16//9
f 22//9 21//9 14//9
f 12//9 22//9 14//9
f 23//9 24//9 20//9
f 19//9 23//9 20//9
f 10//9 22//9 12//9
f 25//9 26//9 24//9
f 23//9 25//9 24//9
f 27//9 22//9 10//9
f 8//9 27//9 10//9
f 25//9 28//9 26//9
f 28//9 29//9 26//9
f 30//9 27//9 8//9
f 6//9 30//9 8//9
f 28//9 31//9 29//9
f 32//10 23//10 19//10
f 33//11 32//11 19//11
f 21//11 33//11 19//11
f 34//12 33//12 21//12
f 22//12 34//12 21//12
f 35//13 25//13 23//13
f 32//10 35//10 23//10
f 36//14 34//14 22//14
f 27//14 36//14 22//14
f 37//15 28//15 25//15
f 35//13 37//13 25//13
f 4//9 30//9 6//9
f 38//9 39//9 31//9
f 28//9 38//9 31//9
f 40//16 36//16 27//16
f 30//16 40//16 27//16
f 41//17 38//17 28//17
f 37//15 41//15 28//15
f 42//18 40//18 30//18
f 43//18 42//18 30//18
f 44//19 45//19 38//19
f 41//17 44//17 38//17
f 4//9 43//9 30//9
f 45//9 39//9 38//9
f 1//9 43//9 4//9
f 45//9 46//9 39//9
f 47//20 42//20 43//20
f 48//20 47//20 43//20
f 49//21 50//21 45//21
f 44//19 49//19 45//19
f 1//9 48//9 43//9
f 50//9 51//9 45//9
f 51//9 46//9 45//9
f 52//22 47//22 48//22
f 53//22 52//22 48//22
f 54//23 55//23 50//24
f 49//21 54//21 50//21
f 20//25 18//25 16//25
f 56//25 18//25 20//25
f 24//26 56//26 20//26
f 57//26 56//26 24//26
f 26//27 57//27 24//27
f 58//27 57//27 26//27
f 29//28 58//28 26//28
f 59//28 58//28 29//28
f 31//29 59//29 29//29
f 60//29 59//29 31//29
f 39//30 60//30 31//30
f 61//30 60//30 39//30
f 46//31 61//31 39//31
f 62//31 61//31 46//31
f 51//32 62//32 46//32
f 63//32 62//32 51//32
f 1//9 3//9 48//9
f 3//9 53//9 48//9
f 64//9 51//9 50//9
f 55//9 64//9 50//9
f 65//33 52//33 53//33
f 66//33 65//33 53//33
f 67//34 68//34 55//34
f 54//23 67//23 55//23
f 3//9 69//9 53//9
f 69//9 66//9 53//9
f 68//9 64//9 55//9
f 70//35 71//35 66//35
f 71//35 65//35 66//35
f 72//36 73//36 68//36
f 67//34 72//34 68//34
f 69//9 70//9 66//9
f 73//9 64//9 68//9
f 74//37 71//37 70//37
f 75//38 74//38 73//38
f 72//36 75//36 73//36
f 75//39 71//39 74//39
f 69//9 74//9 70//9
f 74//9 64//9 73//9
f 2//40 69//40 3//40
f 69//9 64//9 74//9
f 76//41 63//41 51//41
f 64//41 76//41 51//41
f 77//40 78//40 69//40
f 2//40 77//40 69//40
f 78//42 64//42 69//42
f 79//41 76//41 64//41
f 80//41 79//41 64//41
f 78//42 80//42 64//42
f 81//40 82//40 78//40
f 77//40 81//40 78//40
f 82//43 80//43 78//43
f 83//41 79//41 80//41
f 84//41 83//41 80//41
f 82//43 84//43 80//43
f 85//44 86//44 82//44
f 86//44 87//44 82//44
f 87//44 88//44 82//44
f 88//44 89//44 82//44
f 89//44 84//44 82//44
f 90//44 91//44 82//44
f 91//44 92//44 82//44
f 92//44 85//44 82//44
f 93//40 90//40 82//40
f 81//40 93//40 82//40
f 89//44 94//44 84//44
f 94//44 95//44 84//44
f 95//44 96//44 84//44
f 96//44 97//44 84//44
f 97//44 98//44 84//44
f 98//44 99//44 84//44
f 100//41 83//41 84//41
f 99//41 100//41 84//41
f 47//45 77//45 2//45
f 42//45 47//45 2//45
f 5//45 42//45 2//45
f 47//45 52//45 77//45
f 52//45 65//45 77//45
f 65//45 71//45 77//45
f 71//45 76//45 77//45
f 76//46 81//46 77//46
f 7//45 42//45 5//45
f 40//45 42//45 7//45
f 9//45 40//45 7//45
f 36//45 40//45 9//45
f 11//45 36//45 9//45
f 13//45 36//45 11//45
f 34//45 36//45 13//45
f 15//45 34//45 13//45
f 33//45 34//45 15//45
f 17//45 33//45 15//45
f 32//45 33//45 17//45
f 18//45 32//45 17//45
f 75//45 76//45 71//45
f 18//45 35//45 32//45
f 56//45 35//45 18//45
f 72//45 76//45 75//45
f 56//45 37//45 35//45
f 67//45 76//45 72//45
f 57//45 37//45 56//45
f 58//45 41//45 37//45
f 57//45 58//45 37//45
f 63//45 76//45 67//45
f 54//45 63//45 67//45
f 58//45 59//45 41//45
f 59//45 44//45 41//45
f 62//45 63//45 54//45
f 49//45 62//45 54//45
f 61//45 49//45 44//45
f 59//45 60//45 44//45
f 60//45 61//45 44//45
f 61//45 62//45 49//45
f 79//46 81//46 76//46
f 79//47 93//47 81//47
f 83//47 93//47 79//47
f 101//48 102//48 93//48
f 83//48 103//48 93//48
f 103//48 104//48 93//48
f 104//48 101//48 93//48
f 102//48 105//48 93//48
f 105//48 106//48 93//48
f 106//48 107//48 93//48
f 107//40 90//40 93//40
f 108//48 109//48 83//48
f 110//48 108//48 83//48
f 109//48 111//48 83//48
f 111//48 103//48 83//48
f 100//48 112//48 83//48
f 112//48 113//48 83//48
f 113//48 110//48 83//48
f 88//49 104//49 89//49
f 104//49 103//49 89//49
f 103//50 94//50 89//50
f 87//51 101//51 88//51
f 101//51 104//51 88//51
f 103//50 111//50 94//50
f 111//52 95//52 94//52
f 86//53 102//53 87//53
f 102//53 101//53 87//53
f 111//52 109//52 95//52
f 109//54 96//54 95//54
f 85//55 105//55 86//55
f 105//55 102//55 86//55
f 109//54 108//54 96//54
f 108//56 97//56 96//56
f 92//57 106//57 85//57
f 106//57 105//57 85//57
f 108//56 110//56 97//56
f 110//58 98//58 97//58
f 114//41 106//41 92//41
f 91//41 114//41 92//41
f 115//44 99//44 98//44
f 110//58 113//58 98//58
f 113//40 115//40 98//40
f 114//48 107//48 106//48
f 112//40 115//40 113//40
f 116//44 91//44 90//44
f 117//59 116//59 90//59
f 107//59 117//59 90//59
f 115//44 118//44 99//44
f 118//60 100//60 99//60
f 114//48 117//48 107//48
f 119//48 112//48 100//48
f 118//60 119//60 100//60
f 120//44 91//44 116//44
f 121//61 120//61 116//61
f 117//61 121//61 116//61
f 115//44 122//44 118//44
f 122//62 119//62 118//62
f 114//48 121//48 117//48
f 123//48 112//48 119//48
f 122//62 123//62 119//62
f 120//44 124//44 91//44
f 124//63 125//63 91//63
f 125//63 114//63 91//63
f 126//44 122//44 115//44
f 127//44 126//44 115//44
f 112//64 127//64 115//64
f 128//44 124//44 120//44
f 129//65 128//65 120//65
f 121//65 129//65 120//65
f 126//66 123//66 122//66
f 130//44 131//44 124//44
f 128//44 130//44 124//44
f 131//67 132//67 124//67
f 132//67 125//67 124//67
f 133//44 126//44 127//44
f 134//44 133//44 127//44
f 112//64 135//64 127//64
f 135//68 134//68 127//68
f 125//48 129//48 114//48
f 129//48 121//48 114//48
f 123//48 135//48 112//48
f 136//48 135//48 123//48
f 126//66 136//66 123//66
f 130//44 137//44 131//44
f 137//44 138//44 131//44
f 138//69 139//69 131//69
f 139//69 132//69 131//69
f 140//44 141//44 134//44
f 141//44 142//44 134//44
f 142//44 133//44 134//44
f 135//68 143//68 134//68
f 143//70 140//70 134//70
f 144//71 130//71 128//71
f 129//71 144//71 128//71
f 133//72 136//72 126//72
f 132//48 144//48 125//48
f 144//48 129//48 125//48
f 145//48 143//48 135//48
f 136//48 145//48 135//48
f 137//44 146//44 138//44
f 146//44 147//44 138//44
f 147//73 148//73 138//73
f 148//73 139//73 138//73
f 149//44 150//44 140//44
f 150//44 141//44 140//44
f 143//70 151//70 140//70
f 151//74 149//74 140//74
f 146//44 152//44 147//44
f 152//44 153//44 147//44
f 153//75 154//75 147//75
f 154//75 148//75 147//75
f 153//44 155//44 149//44
f 155//44 150//44 149//44
f 151//74 156//74 149//74
f 156//76 153//76 149//76
f 139//48 157//48 132//48
f 157//48 158//48 132//48
f 158//48 144//48 132//48
f 145//48 159//48 143//48
f 159//48 151//48 143//48
f 152//44 155//44 153//44
f 156//76 154//76 153//76
f 133//72 145//72 136//72
f 158//77 137//77 130//77
f 144//77 158//77 130//77
f 142//78 145//78 133//78
f 148//48 160//48 139//48
f 160//48 157//48 139//48
f 159//48 161//48 151//48
f 161//48 156//48 151//48
f 154//48 162//48 148//48
f 162//48 160//48 148//48
f 161//48 163//48 156//48
f 163//48 154//48 156//48
f 163//48 162//48 154//48
f 157//79 146//79 137//79
f 158//79 157//79 137//79
f 141//80 159//80 142//80
f 159//78 145//78 142//78
f 160//81 152//81 146//81
f 157//81 160//81 146//81
f 150//82 161//82 141//82
f 161//80 159//80 141//80
f 162//83 155//83 152//83
f 160//83 162//83 152//83
f 155//84 163//84 150//84
f 163//82 161//82 150//82
f 162//84 163//84 155//84
