# Blender v2.80 (sub 75) OBJ File: ''
# www.blender.org
mtllib Nut.mtl
o Parte4
v -0.163973 -0.090000 0.073481
v -0.144463 -0.090000 0.105906
v -0.305147 -0.090000 0.300000
v -0.118440 -0.090000 0.133378
v -0.087119 -0.090000 0.154615
v -0.305147 -0.090000 -0.300000
v -0.180147 -0.090000 0.000000
v -0.176056 -0.090000 0.037620
v -0.014621 -0.090000 0.174743
v 0.294853 -0.090000 0.300000
v -0.051965 -0.090000 0.168621
v -0.305147 0.090000 0.300000
v -0.305147 0.090000 -0.300000
v 0.023165 -0.090000 0.172695
v 0.059627 -0.090000 0.162571
v 0.093061 -0.090000 0.144846
v 0.121902 -0.090000 0.120347
v 0.168827 -0.090000 0.018921
v 0.294853 -0.090000 -0.300000
v 0.144803 -0.090000 0.090222
v 0.160692 -0.090000 0.055878
v 0.294853 0.090000 0.300000
v -0.051965 0.090000 0.168621
v -0.087119 0.090000 0.154615
v -0.118440 0.090000 0.133378
v -0.144463 0.090000 0.105906
v -0.163973 0.090000 0.073481
v 0.023165 0.090000 0.172695
v -0.014621 0.090000 0.174743
v -0.176056 0.090000 0.037620
v -0.180147 0.090000 0.000000
v 0.160692 0.090000 0.055878
v 0.144803 0.090000 0.090222
v 0.121902 0.090000 0.120347
v 0.093061 0.090000 0.144846
v 0.059627 0.090000 0.162571
v 0.294853 0.090000 -0.300000
v 0.169853 0.090000 0.000000
v 0.168827 0.090000 0.018921
v 0.169853 -0.090000 0.000000
v -0.176056 0.090000 -0.037620
v -0.176056 -0.090000 -0.037620
v 0.168827 -0.090000 -0.018921
v 0.168827 0.090000 -0.018921
v 0.160692 -0.090000 -0.055878
v 0.160692 0.090000 -0.055878
v -0.163973 -0.090000 -0.073481
v -0.163973 0.090000 -0.073481
v 0.144803 -0.090000 -0.090222
v 0.144803 0.090000 -0.090222
v -0.144463 -0.090000 -0.105906
v -0.144463 0.090000 -0.105906
v 0.121902 -0.090000 -0.120347
v 0.121902 0.090000 -0.120347
v -0.118440 -0.090000 -0.133378
v -0.118440 0.090000 -0.133378
v 0.093061 -0.090000 -0.144846
v 0.093061 0.090000 -0.144846
v -0.087119 -0.090000 -0.154615
v -0.087119 0.090000 -0.154615
v 0.059627 -0.090000 -0.162571
v 0.059627 0.090000 -0.162571
v -0.051965 -0.090000 -0.168621
v -0.051965 0.090000 -0.168621
v 0.023165 -0.090000 -0.172695
v 0.023165 0.090000 -0.172695
v -0.014621 -0.090000 -0.174743
v -0.014621 0.090000 -0.174743
vn 0.0000 -1.0000 -0.0000
vn -1.0000 0.0000 0.0000
vn 0.0000 0.0000 1.0000
vn 1.0000 0.0000 0.0000
vn 0.0000 1.0000 0.0000
vn -0.0541 0.0000 -0.9985
vn 0.1618 0.0000 -0.9868
vn -0.2675 0.0000 -0.9635
vn 0.3701 0.0000 -0.9290
vn -0.4684 0.0000 -0.8835
vn 0.5612 0.0000 -0.8277
vn -0.6474 0.0000 -0.7622
vn 0.7260 0.0000 -0.6877
vn -0.7961 0.0000 -0.6052
vn 0.8569 0.0000 -0.5156
vn -0.9076 0.0000 -0.4199
vn 0.9477 0.0000 -0.3193
vn -0.9766 0.0000 -0.2150
vn 0.9941 0.0000 -0.1081
vn -0.9985 0.0000 -0.0541
vn 0.9941 0.0000 0.1081
vn -0.9985 0.0000 0.0541
vn -0.9766 0.0000 0.2150
vn 0.9477 0.0000 0.3193
vn -0.9076 0.0000 0.4199
vn 0.8569 0.0000 0.5156
vn -0.7961 0.0000 0.6052
vn 0.7260 0.0000 0.6877
vn -0.6474 0.0000 0.7622
vn 0.5612 0.0000 0.8277
vn -0.4684 0.0000 0.8835
vn 0.3701 0.0000 0.9290
vn -0.2675 0.0000 0.9635
vn 0.1618 0.0000 0.9868
vn -0.0541 0.0000 0.9985
vn 0.0000 0.0000 -1.0000
usemtl None
s off
f 1//1 2//1 3//1
f 2//1 4//1 3//1
f 4//1 5//1 3//1
f 6//1 7//1 3//1
f 7//1 8//1 3//1
f 8//1 1//1 3//1
f 9//1 10//1 3//1
f 11//1 9//1 3//1
f 5//1 11//1 3//1
f 12//2 13//2 3//2
f 13//2 6//2 3//2
f 10//3 12//3 3//3
f 9//1 14//1 10//1
f 14//1 15//1 10//1
f 15//1 16//1 10//1
f 16//1 17//1 10//1
f 18//1 19//1 10//1
f 17//1 20//1 10//1
f 20//1 21//1 10//1
f 21//1 18//1 10//1
f 19//4 22//4 10//4
f 22//3 12//3 10//3
f 23//5 24//5 12//5
f 24//5 25//5 12//5
f 25//5 26//5 12//5
f 26//5 27//5 12//5
f 22//5 28//5 12//5
f 28//5 29//5 12//5
f 29//5 23//5 12//5
f 27//5 30//5 12//5
f 30//5 31//5 12//5
f 31//5 13//5 12//5
f 32//5 33//5 22//5
f 33//5 34//5 22//5
f 34//5 35//5 22//5
f 35//5 36//5 22//5
f 36//5 28//5 22//5
f 37//5 38//5 22//5
f 38//5 39//5 22//5
f 39//5 32//5 22//5
f 19//4 37//4 22//4
f 29//6 14//6 9//6
f 23//7 29//7 9//7
f 11//7 23//7 9//7
f 28//6 14//6 29//6
f 28//8 15//8 14//8
f 36//8 15//8 28//8
f 24//9 23//9 11//9
f 5//9 24//9 11//9
f 36//10 16//10 15//10
f 35//10 16//10 36//10
f 25//11 24//11 5//11
f 4//11 25//11 5//11
f 35//12 17//12 16//12
f 34//12 17//12 35//12
f 26//13 25//13 4//13
f 2//13 26//13 4//13
f 34//14 20//14 17//14
f 33//14 20//14 34//14
f 27//15 26//15 2//15
f 1//15 27//15 2//15
f 33//16 21//16 20//16
f 32//16 21//16 33//16
f 30//17 27//17 1//17
f 8//17 30//17 1//17
f 32//18 18//18 21//18
f 39//18 18//18 32//18
f 31//19 30//19 8//19
f 7//19 31//19 8//19
f 40//1 19//1 18//1
f 39//20 40//20 18//20
f 38//20 40//20 39//20
f 41//21 31//21 7//21
f 42//21 41//21 7//21
f 6//1 42//1 7//1
f 41//5 13//5 31//5
f 43//1 19//1 40//1
f 44//22 43//22 38//22
f 43//22 40//22 38//22
f 37//5 44//5 38//5
f 45//1 19//1 43//1
f 44//23 45//23 43//23
f 37//5 46//5 44//5
f 46//23 45//23 44//23
f 6//1 47//1 42//1
f 48//24 41//24 42//24
f 47//24 48//24 42//24
f 48//5 13//5 41//5
f 49//1 19//1 45//1
f 46//25 49//25 45//25
f 37//5 50//5 46//5
f 50//25 49//25 46//25
f 6//1 51//1 47//1
f 52//26 48//26 47//26
f 51//26 52//26 47//26
f 52//5 13//5 48//5
f 53//1 19//1 49//1
f 50//27 53//27 49//27
f 37//5 54//5 50//5
f 54//27 53//27 50//27
f 6//1 55//1 51//1
f 56//28 52//28 51//28
f 55//28 56//28 51//28
f 56//5 13//5 52//5
f 57//1 19//1 53//1
f 54//29 57//29 53//29
f 37//5 58//5 54//5
f 58//29 57//29 54//29
f 6//1 59//1 55//1
f 60//30 56//30 55//30
f 59//30 60//30 55//30
f 60//5 13//5 56//5
f 61//1 19//1 57//1
f 58//31 61//31 57//31
f 37//5 62//5 58//5
f 62//31 61//31 58//31
f 6//1 63//1 59//1
f 64//32 60//32 59//32
f 63//32 64//32 59//32
f 64//5 13//5 60//5
f 65//1 19//1 61//1
f 62//33 65//33 61//33
f 37//5 66//5 62//5
f 66//33 65//33 62//33
f 6//1 67//1 63//1
f 68//34 64//34 63//34
f 67//34 68//34 63//34
f 68//5 13//5 64//5
f 6//1 19//1 65//1
f 67//1 6//1 65//1
f 66//35 67//35 65//35
f 37//5 68//5 66//5
f 68//35 67//35 66//35
f 37//5 13//5 68//5
f 13//36 37//36 6//36
f 37//36 19//36 6//36
