# Blender v2.80 (sub 75) OBJ File: ''
# www.blender.org
mtllib Tube.mtl
o Parte7
v -0.046428 -0.250000 0.247117
v 0.004091 -0.250000 0.249679
v -0.023426 -0.250000 0.349685
v -0.082309 -0.250000 0.342144
v 0.035885 -0.250000 0.347165
v -0.023426 0.250000 0.349685
v -0.082309 0.250000 0.342144
v 0.004091 0.250000 0.249679
v -0.046428 0.250000 0.247117
v 0.035885 0.250000 0.347165
v 0.093917 -0.250000 0.334658
v 0.054092 0.250000 0.242019
v 0.093917 0.250000 0.334658
v -0.095398 -0.250000 0.234438
v -0.139071 -0.250000 0.324761
v -0.139071 0.250000 0.324761
v 0.054092 -0.250000 0.242019
v 0.149000 -0.250000 0.312524
v 0.101527 0.250000 0.224451
v 0.149000 0.250000 0.312524
v -0.140812 -0.250000 0.212161
v -0.192079 -0.250000 0.298035
v -0.192079 0.250000 0.298035
v -0.095398 0.250000 0.234438
v 0.101527 -0.250000 0.224451
v 0.199550 -0.250000 0.281399
v 0.144455 0.250000 0.197694
v 0.199550 0.250000 0.281399
v -0.180813 -0.250000 0.181198
v -0.239808 -0.250000 0.262735
v -0.239808 0.250000 0.262735
v -0.140812 0.250000 0.212161
v 0.144455 -0.250000 0.197694
v 0.244113 -0.250000 0.242179
v 0.181118 0.250000 0.162843
v 0.244113 0.250000 0.242179
v -0.213762 -0.250000 0.142817
v -0.280884 -0.250000 0.219877
v -0.280884 0.250000 0.219877
v -0.180813 0.250000 0.181198
v 0.181118 -0.250000 0.162843
v 0.281407 -0.250000 0.195991
v 0.281407 0.250000 0.195991
v -0.314126 -0.250000 0.170693
v -0.314126 0.250000 0.170693
v -0.213762 0.250000 0.142817
v 0.210015 -0.250000 0.121326
v 0.310359 -0.250000 0.144166
v 0.210015 0.250000 0.121326
v 0.310359 0.250000 0.144166
v -0.238311 -0.250000 0.098589
v -0.338579 -0.250000 0.116599
v -0.338579 0.250000 0.116599
v -0.238311 0.250000 0.098589
v 0.330135 -0.250000 0.088192
v 0.229963 0.250000 0.074841
v 0.330135 0.250000 0.088192
v 0.229963 -0.250000 0.074841
v -0.253454 -0.250000 0.050325
v -0.353537 -0.250000 0.059150
v -0.353537 0.250000 0.059150
v -0.253454 0.250000 0.050325
v 0.340168 -0.250000 0.029682
v 0.240146 0.250000 0.025292
v 0.340168 0.250000 0.029682
v 0.240146 -0.250000 0.025292
v -0.258572 -0.250000 0.000000
v -0.358572 -0.250000 0.000000
v -0.358572 0.250000 0.000000
v -0.258572 0.250000 0.000000
v 0.341429 -0.250000 0.000000
v 0.341429 0.250000 0.000000
v 0.241429 0.250000 0.000000
v 0.241429 -0.250000 0.000000
v -0.253454 0.250000 -0.050325
v -0.253454 -0.250000 -0.050325
v -0.353537 -0.250000 -0.059150
v -0.353537 0.250000 -0.059150
v 0.240146 -0.250000 -0.025292
v 0.340168 -0.250000 -0.029682
v 0.240146 0.250000 -0.025292
v 0.340168 0.250000 -0.029682
v 0.229963 -0.250000 -0.074841
v 0.330135 -0.250000 -0.088192
v 0.229963 0.250000 -0.074841
v 0.330135 0.250000 -0.088192
v -0.238311 -0.250000 -0.098589
v -0.238311 0.250000 -0.098589
v -0.338579 0.250000 -0.116599
v -0.338579 -0.250000 -0.116599
v 0.210015 -0.250000 -0.121325
v 0.310359 -0.250000 -0.144165
v 0.210015 0.250000 -0.121325
v 0.310359 0.250000 -0.144165
v -0.314126 -0.250000 -0.170693
v -0.213762 -0.250000 -0.142817
v -0.213762 0.250000 -0.142817
v -0.314126 0.250000 -0.170693
v 0.181118 -0.250000 -0.162843
v 0.281407 -0.250000 -0.195991
v 0.281407 0.250000 -0.195991
v 0.181118 0.250000 -0.162843
v -0.280884 -0.250000 -0.219877
v -0.180813 -0.250000 -0.181198
v -0.180813 0.250000 -0.181198
v -0.239808 0.250000 -0.262735
v -0.280884 0.250000 -0.219877
v 0.144455 -0.250000 -0.197694
v 0.199550 -0.250000 -0.281399
v 0.244113 -0.250000 -0.242179
v 0.244113 0.250000 -0.242179
v 0.144455 0.250000 -0.197694
v -0.239808 -0.250000 -0.262735
v -0.140812 -0.250000 -0.212161
v -0.140812 0.250000 -0.212161
v -0.192079 0.250000 -0.298035
v 0.101527 -0.250000 -0.224451
v 0.149000 -0.250000 -0.312524
v 0.199550 0.250000 -0.281399
v 0.101527 0.250000 -0.224451
v -0.192079 -0.250000 -0.298035
v -0.095398 -0.250000 -0.234438
v -0.095398 0.250000 -0.234438
v -0.139071 0.250000 -0.324761
v 0.054092 -0.250000 -0.242019
v 0.093917 -0.250000 -0.334658
v 0.149000 0.250000 -0.312524
v 0.054092 0.250000 -0.242019
v -0.139071 -0.250000 -0.324761
v -0.046428 -0.250000 -0.247117
v -0.046428 0.250000 -0.247117
v -0.082309 0.250000 -0.342144
v 0.004091 -0.250000 -0.249679
v 0.035885 -0.250000 -0.347165
v 0.093917 0.250000 -0.334658
v 0.004091 0.250000 -0.249679
v -0.023426 -0.250000 -0.349685
v -0.082309 -0.250000 -0.342144
v -0.023426 0.250000 -0.349685
v 0.035885 0.250000 -0.347165
vn 0.0000 -1.0000 0.0000
vn 0.0424 0.0000 0.9991
vn -0.1270 0.0000 0.9919
vn 0.0000 1.0000 0.0000
vn 0.2107 0.0000 0.9776
vn -0.2928 0.0000 0.9562
vn 0.3729 0.0000 0.9279
vn -0.4502 0.0000 0.8929
vn 0.5243 0.0000 0.8515
vn -0.5946 0.0000 0.8040
vn 0.6607 0.0000 0.7507
vn -0.7220 0.0000 0.6919
vn -0.1514 0.0000 -0.9885
vn 0.0506 0.0000 -0.9987
vn 0.2507 0.0000 -0.9681
vn 0.7780 0.0000 0.6282
vn -0.3473 0.0000 -0.9378
vn 0.4404 0.0000 -0.8978
vn -0.5290 0.0000 -0.8486
vn -0.8285 0.0000 0.5600
vn 0.6121 0.0000 -0.7908
vn -0.6890 0.0000 -0.7248
vn 0.8730 0.0000 0.4877
vn 0.7588 0.0000 -0.6514
vn -0.9112 0.0000 0.4119
vn -0.8208 0.0000 -0.5713
vn 0.9429 0.0000 0.3331
vn 0.8743 0.0000 -0.4853
vn -0.9190 0.0000 -0.3944
vn -0.9677 0.0000 0.2520
vn 0.9541 0.0000 -0.2994
vn 0.9856 0.0000 0.1690
vn -0.9795 0.0000 -0.2013
vn -0.9964 0.0000 0.0848
vn 0.9949 0.0000 -0.1012
vn 0.9991 0.0000 0.0424
vn -0.9987 0.0000 -0.0506
vn 0.9949 0.0000 0.1012
vn -0.9964 0.0000 -0.0848
vn -0.9987 0.0000 0.0506
vn 0.9991 0.0000 -0.0424
vn -0.9795 0.0000 0.2013
vn 0.9856 0.0000 -0.1690
vn 0.9541 0.0000 0.2994
vn -0.9677 0.0000 -0.2520
vn -0.9190 0.0000 0.3944
vn 0.9429 0.0000 -0.3331
vn 0.8743 0.0000 0.4853
vn -0.9112 0.0000 -0.4119
vn -0.8208 0.0000 0.5713
vn 0.7588 0.0000 0.6514
vn 0.8730 0.0000 -0.4877
vn -0.6890 0.0000 0.7248
vn -0.8285 0.0000 -0.5600
vn 0.6121 0.0000 0.7908
vn 0.7780 0.0000 -0.6282
vn -0.5290 0.0000 0.8486
vn 0.4404 0.0000 0.8978
vn -0.7220 0.0000 -0.6919
vn -0.3473 0.0000 0.9378
vn 0.2507 0.0000 0.9681
vn -0.1514 0.0000 0.9885
vn 0.6607 0.0000 -0.7507
vn 0.0506 0.0000 0.9987
vn -0.5946 0.0000 -0.8040
vn 0.5243 0.0000 -0.8515
vn -0.4502 0.0000 -0.8929
vn 0.3729 0.0000 -0.9279
vn -0.2928 0.0000 -0.9562
vn 0.2107 0.0000 -0.9776
vn -0.1270 0.0000 -0.9919
vn 0.0424 0.0000 -0.9991
usemtl None
s off
f 1//1 2//1 3//1
f 4//1 1//1 3//1
f 2//1 5//1 3//1
f 5//2 6//2 3//2
f 6//3 7//3 3//3
f 7//3 4//3 3//3
f 8//4 9//4 6//4
f 10//4 8//4 6//4
f 9//4 7//4 6//4
f 5//2 10//2 6//2
f 2//1 11//1 5//1
f 11//5 10//5 5//5
f 12//4 8//4 10//4
f 13//4 12//4 10//4
f 11//5 13//5 10//5
f 14//1 1//1 4//1
f 15//1 14//1 4//1
f 7//6 16//6 4//6
f 16//6 15//6 4//6
f 9//4 16//4 7//4
f 17//1 18//1 11//1
f 2//1 17//1 11//1
f 18//7 13//7 11//7
f 19//4 12//4 13//4
f 20//4 19//4 13//4
f 18//7 20//7 13//7
f 21//1 14//1 15//1
f 22//1 21//1 15//1
f 16//8 23//8 15//8
f 23//8 22//8 15//8
f 24//4 23//4 16//4
f 9//4 24//4 16//4
f 25//1 26//1 18//1
f 17//1 25//1 18//1
f 26//9 20//9 18//9
f 27//4 19//4 20//4
f 28//4 27//4 20//4
f 26//9 28//9 20//9
f 29//1 21//1 22//1
f 30//1 29//1 22//1
f 23//10 31//10 22//10
f 31//10 30//10 22//10
f 32//4 31//4 23//4
f 24//4 32//4 23//4
f 33//1 34//1 26//1
f 25//1 33//1 26//1
f 34//11 28//11 26//11
f 35//4 27//4 28//4
f 36//4 35//4 28//4
f 34//11 36//11 28//11
f 37//1 29//1 30//1
f 38//1 37//1 30//1
f 31//12 39//12 30//12
f 39//12 38//12 30//12
f 40//4 39//4 31//4
f 32//4 40//4 31//4
f 8//13 17//13 2//13
f 9//14 8//14 2//14
f 1//14 9//14 2//14
f 12//13 17//13 8//13
f 24//15 9//15 1//15
f 14//15 24//15 1//15
f 41//1 42//1 34//1
f 33//1 41//1 34//1
f 42//16 36//16 34//16
f 43//4 35//4 36//4
f 42//16 43//16 36//16
f 12//17 25//17 17//17
f 19//17 25//17 12//17
f 32//18 24//18 14//18
f 21//18 32//18 14//18
f 19//19 33//19 25//19
f 27//19 33//19 19//19
f 44//1 37//1 38//1
f 39//20 45//20 38//20
f 45//20 44//20 38//20
f 46//4 45//4 39//4
f 40//4 46//4 39//4
f 40//21 32//21 21//21
f 29//21 40//21 21//21
f 27//22 41//22 33//22
f 35//22 41//22 27//22
f 47//1 48//1 42//1
f 41//1 47//1 42//1
f 48//23 43//23 42//23
f 49//4 35//4 43//4
f 50//4 49//4 43//4
f 48//23 50//23 43//23
f 46//24 40//24 29//24
f 37//24 46//24 29//24
f 51//1 37//1 44//1
f 52//1 51//1 44//1
f 45//25 53//25 44//25
f 53//25 52//25 44//25
f 46//4 54//4 45//4
f 54//4 53//4 45//4
f 35//26 47//26 41//26
f 49//26 47//26 35//26
f 47//1 55//1 48//1
f 55//27 50//27 48//27
f 56//4 49//4 50//4
f 57//4 56//4 50//4
f 55//27 57//27 50//27
f 54//28 46//28 37//28
f 51//28 54//28 37//28
f 58//1 55//1 47//1
f 49//29 58//29 47//29
f 56//29 58//29 49//29
f 59//1 51//1 52//1
f 60//1 59//1 52//1
f 53//30 61//30 52//30
f 61//30 60//30 52//30
f 54//4 61//4 53//4
f 62//31 54//31 51//31
f 59//31 62//31 51//31
f 62//4 61//4 54//4
f 58//1 63//1 55//1
f 63//32 57//32 55//32
f 64//4 56//4 57//4
f 65//4 64//4 57//4
f 63//32 65//32 57//32
f 66//1 63//1 58//1
f 56//33 66//33 58//33
f 64//33 66//33 56//33
f 67//1 59//1 60//1
f 68//1 67//1 60//1
f 61//34 69//34 60//34
f 69//34 68//34 60//34
f 62//4 69//4 61//4
f 70//35 62//35 59//35
f 67//35 70//35 59//35
f 70//4 69//4 62//4
f 66//1 71//1 63//1
f 71//36 72//36 63//36
f 72//36 65//36 63//36
f 73//4 64//4 65//4
f 72//4 73//4 65//4
f 74//1 71//1 66//1
f 64//37 74//37 66//37
f 73//37 74//37 64//37
f 75//38 70//38 67//38
f 76//38 75//38 67//38
f 76//1 67//1 68//1
f 77//1 76//1 68//1
f 69//39 78//39 68//39
f 78//39 77//39 68//39
f 70//4 78//4 69//4
f 75//4 78//4 70//4
f 79//1 80//1 74//1
f 80//1 71//1 74//1
f 81//40 79//40 73//40
f 79//40 74//40 73//40
f 82//41 72//41 71//41
f 80//41 82//41 71//41
f 81//4 73//4 72//4
f 82//4 81//4 72//4
f 83//1 84//1 79//1
f 84//1 80//1 79//1
f 81//42 83//42 79//42
f 82//4 85//4 81//4
f 85//42 83//42 81//42
f 84//43 82//43 80//43
f 86//4 85//4 82//4
f 84//43 86//43 82//43
f 77//1 87//1 76//1
f 88//44 75//44 76//44
f 87//44 88//44 76//44
f 88//4 89//4 75//4
f 89//4 78//4 75//4
f 90//1 87//1 77//1
f 78//45 89//45 77//45
f 89//45 90//45 77//45
f 91//1 92//1 83//1
f 92//1 84//1 83//1
f 85//46 91//46 83//46
f 86//4 93//4 85//4
f 93//46 91//46 85//46
f 92//47 86//47 84//47
f 94//4 93//4 86//4
f 92//47 94//47 86//47
f 90//1 95//1 87//1
f 95//1 96//1 87//1
f 97//48 88//48 87//48
f 96//48 97//48 87//48
f 97//4 98//4 88//4
f 98//4 89//4 88//4
f 89//49 98//49 90//49
f 98//49 95//49 90//49
f 99//1 100//1 91//1
f 100//1 92//1 91//1
f 93//50 99//50 91//50
f 94//4 101//4 93//4
f 101//4 102//4 93//4
f 102//50 99//50 93//50
f 95//1 103//1 96//1
f 103//1 104//1 96//1
f 105//51 97//51 96//51
f 104//51 105//51 96//51
f 105//4 106//4 97//4
f 106//4 107//4 97//4
f 107//4 98//4 97//4
f 100//52 94//52 92//52
f 100//52 101//52 94//52
f 108//1 109//1 99//1
f 109//1 110//1 99//1
f 110//1 100//1 99//1
f 102//53 108//53 99//53
f 101//4 111//4 102//4
f 111//4 112//4 102//4
f 112//53 108//53 102//53
f 98//54 107//54 95//54
f 107//54 103//54 95//54
f 103//1 113//1 104//1
f 113//1 114//1 104//1
f 115//55 105//55 104//55
f 114//55 115//55 104//55
f 115//4 116//4 105//4
f 116//4 106//4 105//4
f 110//56 101//56 100//56
f 110//56 111//56 101//56
f 117//1 118//1 108//1
f 118//1 109//1 108//1
f 112//57 117//57 108//57
f 111//4 119//4 112//4
f 119//4 120//4 112//4
f 120//57 117//57 112//57
f 113//1 121//1 114//1
f 121//1 122//1 114//1
f 123//58 115//58 114//58
f 122//58 123//58 114//58
f 123//4 124//4 115//4
f 124//4 116//4 115//4
f 107//59 106//59 103//59
f 106//59 113//59 103//59
f 125//1 126//1 117//1
f 126//1 118//1 117//1
f 120//60 125//60 117//60
f 119//4 127//4 120//4
f 127//4 128//4 120//4
f 128//60 125//60 120//60
f 121//1 129//1 122//1
f 129//1 130//1 122//1
f 131//61 123//61 122//61
f 130//61 131//61 122//61
f 131//4 132//4 123//4
f 132//4 124//4 123//4
f 133//1 134//1 125//1
f 134//1 126//1 125//1
f 128//62 133//62 125//62
f 127//4 135//4 128//4
f 135//4 136//4 128//4
f 136//62 133//62 128//62
f 109//63 111//63 110//63
f 109//63 119//63 111//63
f 137//1 133//1 130//1
f 129//1 138//1 130//1
f 138//1 137//1 130//1
f 136//64 131//64 130//64
f 133//64 136//64 130//64
f 136//4 139//4 131//4
f 139//4 132//4 131//4
f 137//1 134//1 133//1
f 135//4 140//4 136//4
f 140//4 139//4 136//4
f 106//65 116//65 113//65
f 116//65 121//65 113//65
f 118//66 119//66 109//66
f 118//66 127//66 119//66
f 116//67 124//67 121//67
f 124//67 129//67 121//67
f 126//68 127//68 118//68
f 126//68 135//68 127//68
f 124//69 132//69 129//69
f 132//69 138//69 129//69
f 134//70 135//70 126//70
f 134//70 140//70 135//70
f 132//71 139//71 138//71
f 139//71 137//71 138//71
f 137//72 140//72 134//72
f 137//72 139//72 140//72
