# Blender v2.80 (sub 75) OBJ File: ''
# www.blender.org
mtllib Base.mtl
o M-227.50_1
v 4.947785 -1.061358 0.165514
v -4.852222 -1.061358 0.165514
v -4.852222 -1.061358 -0.164417
v 4.947785 -1.061358 -0.164417
v -4.852222 -0.948515 -0.474452
v -4.852222 -0.893941 -0.134897
v -4.852222 -0.893941 0.135994
v 4.947785 -0.948515 -0.474452
v 4.947785 -0.913637 -0.138370
v 4.947785 -0.818611 -0.399452
v 4.947785 -0.948515 0.475549
v -4.852222 -0.948515 0.475549
v -4.852222 -0.801291 0.390548
v 4.947785 -0.913637 0.139467
v -4.852222 -0.736439 -0.727194
v -4.852222 -0.801291 -0.389452
v 4.947785 -0.736439 -0.727194
v 4.947785 -0.640021 -0.612287
v 4.947785 -0.736439 0.728291
v -4.852222 -0.736439 0.728291
v -4.852222 -0.627165 0.598063
v 4.947785 -0.818611 0.400549
v 6.347783 -0.913637 0.139467
v 6.347783 -0.913637 -0.138370
v 6.347783 -0.818611 -0.399452
v 6.347783 -0.725791 0.000548
v 6.347783 -0.680118 -0.229062
v 6.347783 -0.818611 0.400549
v -4.552222 -0.893941 -0.134897
v -4.552222 -0.893941 0.135994
v -4.552222 -0.801291 -0.389452
v -4.552222 -0.375791 0.000548
v -4.552222 -0.342297 -0.124452
v -4.552222 -0.801291 0.390548
v -4.552222 -0.342297 0.125548
v 6.347783 -0.640021 -0.612287
v 6.347783 -0.550055 -0.423716
v 4.947785 -0.640021 0.613384
v 6.347783 -0.640021 0.613384
v 6.347783 -0.680118 0.230159
v -4.852222 -0.627165 -0.596966
v -4.552222 -0.627165 -0.596966
v -4.552222 -0.627165 0.598063
v -4.852222 -0.450710 -0.892160
v 4.947785 -0.450710 -0.892160
v 4.947785 -0.399407 -0.751206
v 4.947785 -0.450710 0.893257
v -4.852222 -0.450710 0.893257
v -4.852222 -0.392566 0.733509
v 6.597784 -0.675791 0.000548
v 6.547784 -0.676602 0.229403
v 6.547784 -0.725791 0.000548
v 6.547784 -0.676602 -0.228306
v 6.547784 -0.672803 -0.245982
v 6.347783 -0.550055 0.424813
v 6.547784 -0.672803 0.247079
v 6.597784 -0.627219 -0.225438
v 6.597784 -0.627219 0.226534
v 6.597784 -0.490083 0.412606
v 6.597784 -0.490083 -0.411509
v 6.547784 -0.544713 -0.419779
v 6.547784 -0.544713 0.420876
v 6.347783 -0.399407 -0.751206
v 6.347783 -0.355401 -0.553779
v 4.947785 -0.399407 0.752303
v 6.347783 -0.399407 0.752303
v -4.852222 -0.392566 -0.732412
v -4.552222 -0.392566 -0.732412
v -4.552222 -0.250791 -0.215958
v -4.552222 -0.392566 0.733509
v -4.552222 -0.250791 0.217055
v 5.997783 -0.477615 0.281119
v 5.997783 -0.564508 0.100683
v 5.997783 -0.564508 -0.099586
v 5.997783 -0.477615 -0.280022
v 6.397783 -0.564508 -0.099586
v 6.397783 -0.564508 0.100683
v 6.397783 -0.477615 -0.280022
v 6.397783 -0.477615 0.281119
v 6.397783 -0.457453 -0.499452
v 6.547784 -0.523200 -0.448969
v 6.397783 -0.355401 -0.553779
v 6.347783 -0.355401 0.554876
v 6.397783 -0.457453 0.500549
v 6.547784 -0.523200 0.450065
v 6.547784 -0.457453 -0.499452
v 6.597784 -0.354919 -0.499452
v 6.547784 -0.457453 0.500549
v 6.597784 0.238502 0.412606
v 6.597784 0.103338 0.500549
v 6.597784 -0.354919 0.500549
v 5.997783 -0.321038 -0.404888
v 5.997783 0.226034 0.281119
v 5.997783 0.069457 0.405984
v 5.997783 -0.125791 0.450548
v 5.997783 -0.321038 0.405984
v 6.397783 -0.321038 -0.404888
v 6.397783 -0.321038 0.405984
v 6.397783 0.226034 -0.280022
v 6.397783 0.069457 -0.404888
v 6.397783 -0.125791 -0.449452
v 6.397783 0.205872 -0.499452
v 6.397783 0.103820 -0.553779
v 6.397783 -0.355401 0.554876
v 6.397783 0.205872 0.500549
v 6.397783 0.103819 0.554876
v -4.852222 -0.125791 -0.949452
v 4.947785 -0.125791 -0.949452
v 4.947785 -0.125791 -0.799452
v 4.947785 -0.125791 0.950549
v -4.852222 -0.125791 0.950549
v -4.852222 -0.125791 0.780549
v 6.347783 -0.125791 -0.799452
v 6.347783 -0.125791 -0.599452
v 4.947785 -0.125791 0.800549
v 6.347783 -0.125791 0.800549
v -4.852222 -0.125791 -0.779452
v -4.552222 -0.125791 -0.779452
v -4.552222 -0.125791 -0.249452
v -4.552222 -0.125791 0.780549
v -4.552222 -0.125791 0.250549
v -5.652224 -0.342297 0.125548
v -5.652224 -0.000791 0.217055
v -5.652224 -0.375791 0.000548
v -5.652224 -0.342297 -0.124452
v 6.397783 -0.125791 -0.599452
v 6.347783 -0.125791 0.600549
v 6.397783 -0.125791 0.600549
v 6.597784 0.238502 -0.411509
v 6.597784 0.103338 -0.499452
v -5.652224 -0.250791 -0.215958
v -5.652224 -0.250791 0.217055
v -5.652224 -0.125791 0.250549
v 5.997783 -0.125791 -0.449452
v 6.397783 -0.125791 0.450548
v -5.652224 0.090716 -0.124452
v -5.652224 -0.125791 -0.249452
v -5.652224 0.090716 0.125548
v -4.552222 -0.000791 0.217055
v -4.552222 0.140985 0.733509
v 6.397783 0.069457 0.405984
v 6.397783 0.312927 -0.099586
v 6.347783 0.103819 0.554876
v 6.347783 0.147826 0.752303
v -4.852222 0.140985 0.733509
v 4.947785 0.147826 0.752303
v 4.947785 0.199129 0.893257
v -4.852222 0.199129 0.893257
v -5.652224 -0.000791 -0.215958
v -4.552222 -0.000791 -0.215958
v -4.552222 0.140985 -0.732412
v 5.997783 0.069457 -0.404888
v 6.347783 0.103820 -0.553779
v -4.852222 0.140985 -0.732412
v -4.852222 0.199129 -0.892160
v 4.947785 0.147826 -0.751206
v 6.347783 0.147826 -0.751206
v 4.947785 0.199129 -0.892160
v -4.552222 0.090716 -0.124452
v -4.552222 0.549709 -0.389452
v -4.552222 0.375584 -0.596966
v -4.552222 0.090716 0.125548
v -4.552222 0.375584 0.598063
v 5.997783 0.226034 -0.280022
v 5.997783 0.312927 -0.099586
v 6.397783 0.226034 0.281119
v 6.397783 0.312927 0.100683
v -5.652224 0.124209 0.000548
v -4.552222 0.124209 0.000548
v -4.552222 0.642360 -0.134897
v -4.552222 0.549709 0.390549
v 6.547784 0.205872 -0.499452
v 6.547784 0.271619 0.450066
v 6.547784 0.205872 0.500549
v 6.347783 0.298474 -0.423716
v 6.347783 0.298474 0.424813
v 6.347783 0.388440 0.613384
v -4.552222 0.642360 0.135994
v -4.852222 0.375584 -0.596966
v -4.852222 0.484858 -0.727194
v -4.852222 0.375584 0.598063
v 4.947785 0.388440 -0.612287
v 6.347783 0.388440 -0.612287
v 4.947785 0.388440 0.613384
v 4.947785 0.484858 0.728291
v 3.599675 0.482459 -0.724821
v 3.609084 0.461290 -0.746337
v 3.647786 0.374210 -0.807226
v 4.447785 0.374210 -0.807226
v 4.947785 0.484858 -0.727194
v 3.647786 0.374209 0.808323
v -4.852222 0.484858 0.728291
v 4.447785 0.374209 0.808323
v 4.495896 0.482459 0.725918
v 4.486487 0.461289 0.747434
v 6.547784 0.271619 -0.448969
v 5.997783 0.312927 0.100683
v 6.597784 0.375638 -0.225438
v 6.547784 0.293132 -0.419779
v 6.597784 0.375638 0.226534
v 6.547784 0.293132 0.420876
v 6.547784 0.421222 -0.245982
v 6.547784 0.421222 0.247079
v 6.347783 0.428537 -0.229062
v 6.347783 0.428537 0.230159
v 6.347783 0.567030 0.400549
v 3.647786 0.374210 -0.489350
v 4.494145 0.478522 -0.719648
v 4.447785 0.374210 -0.489350
v 3.533870 0.630521 -0.574338
v 3.597900 0.486451 -0.338804
v 4.497670 0.486451 -0.338804
v 4.540689 0.583245 -0.631725
v 4.447785 0.374209 0.490447
v 3.647786 0.374209 0.490447
v 3.588942 0.506609 0.300667
v 3.554881 0.583245 0.632822
v 3.601425 0.478522 0.720745
v 4.561701 0.630521 0.575434
v 4.506629 0.506609 0.300667
v -4.852222 0.549709 -0.389452
v -4.852222 0.696934 -0.474452
v -4.852222 0.549709 0.390549
v 6.597784 0.424210 0.000548
v 6.547784 0.425021 -0.228306
v 6.547784 0.425021 0.229403
v 4.947785 0.567030 -0.399452
v 6.347783 0.567030 -0.399452
v 4.947785 0.567030 0.400549
v 4.947785 0.696934 0.475549
v 6.547784 0.474210 0.000548
v 6.347783 0.474210 0.000548
v 6.347783 0.662056 0.139467
v 6.347783 0.662056 -0.138370
v 3.507814 0.689145 -0.470071
v 4.947785 0.696934 -0.474452
v -4.852222 0.696934 0.475549
v 4.587757 0.689145 0.471168
v 3.585402 0.514573 -0.261229
v 4.510169 0.514573 -0.261229
v 4.606837 0.732079 -0.407569
v 4.588358 0.690500 -0.470191
v 3.584045 0.517626 0.263732
v 3.488733 0.732079 0.408666
v 3.507213 0.690500 0.471288
v 4.511525 0.517626 0.263732
v 3.477042 0.758381 -0.346931
v 3.564462 0.561688 -0.131259
v 4.531108 0.561688 -0.131259
v 4.640894 0.808705 -0.170388
v 3.561797 0.567685 0.095900
v 3.454677 0.808705 0.171485
v 4.618527 0.758381 0.348028
v 4.533774 0.567685 0.095900
v -4.852222 0.642360 -0.134897
v -4.852222 0.809777 -0.164417
v -4.852222 0.642360 0.135994
v 3.457317 0.802766 -0.162730
v 3.562912 0.565174 0.000787
v 4.532657 0.565174 0.000787
v 4.641004 0.808952 -0.164383
v 3.449831 0.819609 -0.092829
v 4.638254 0.802766 0.163827
v 4.645740 0.819609 0.093926
v 4.947785 0.662056 -0.138370
v 4.947785 0.662056 0.139467
v 4.947785 0.809777 0.165514
v 3.454567 0.808952 0.165480
v -4.852222 0.809777 0.165514
v 4.947785 0.809777 -0.164417
vn 0.0000 -1.0000 0.0000
vn 0.0000 -0.9397 -0.3420
vn -1.0000 -0.0000 0.0000
vn 1.0000 0.0000 0.0000
vn 0.0000 -0.9397 0.3420
vn 0.0000 -0.7660 -0.6428
vn 0.0000 -0.7660 0.6428
vn 0.0000 0.9397 0.3420
vn 0.0000 1.0000 0.0000
vn 0.0000 0.9397 -0.3420
vn 0.0000 0.7660 0.6428
vn 0.0000 0.7660 -0.6428
vn 0.0000 -0.5000 -0.8660
vn 0.0000 -0.5000 0.8660
vn 0.6991 -0.6991 0.1503
vn 0.6991 -0.6991 -0.1503
vn 0.0000 -0.9808 -0.1951
vn 0.0000 -0.9777 0.2101
vn 0.0180 -0.9806 0.1951
vn 0.0180 -0.9775 -0.2101
vn -0.0166 -0.8314 -0.5555
vn 0.0180 -0.9775 0.2101
vn -0.0166 -0.8314 0.5555
vn 0.6991 -0.5756 -0.4242
vn 0.0332 -0.8045 -0.5930
vn 0.6991 -0.5756 0.4242
vn 0.0332 -0.8046 0.5930
vn 0.0000 0.5000 0.8660
vn 0.0000 0.5000 -0.8660
vn 0.0000 0.9010 0.4339
vn 0.0000 0.9010 -0.4339
vn -0.0138 -0.6286 -0.7776
vn -0.4230 -0.4258 -0.7999
vn 0.0000 -0.5556 -0.8315
vn -0.2246 -0.5414 0.8102
vn -0.0138 -0.6286 0.7776
vn 0.0332 -0.8045 0.5930
vn 0.7806 -0.3807 -0.4957
vn 0.7033 -0.3877 -0.5959
vn 0.0000 -0.6090 -0.7932
vn 0.7063 -0.4312 0.5615
vn 0.0000 -0.6090 0.7932
vn 0.7455 -0.3635 0.5587
vn 0.0000 0.6235 0.7818
vn 0.0000 0.6235 -0.7818
vn 0.0000 0.0000 -1.0000
vn 0.0000 -0.4699 0.8827
vn -0.0000 0.0000 1.0000
vn 0.0000 -0.1736 -0.9848
vn 0.0000 -0.1736 0.9848
vn 0.0000 0.1736 0.9848
vn 0.0000 0.1736 -0.9848
vn 0.0000 -0.9659 0.2588
vn 0.0000 -0.9659 -0.2588
vn 0.0000 -0.1951 -0.9808
vn 0.0000 -0.1951 0.9808
vn 0.0000 -0.7071 -0.7071
vn 0.0000 -0.7071 0.7071
vn 0.0000 0.2225 0.9749
vn 0.0000 0.2225 -0.9749
vn 0.0000 -0.2588 -0.9659
vn 0.0000 -0.2588 0.9659
vn 0.0000 0.2588 0.9659
vn 0.0000 -0.2225 -0.9749
vn 0.0000 0.1951 0.9808
vn 0.0000 0.2588 -0.9659
vn 0.0000 -0.2225 0.9749
vn 0.0000 0.1951 -0.9808
vn 0.0000 0.7071 -0.7071
vn 0.0000 0.7071 0.7071
vn 0.0000 -0.6235 0.7818
vn 0.0000 -0.6235 -0.7818
vn 0.0000 0.9659 -0.2588
vn 0.0000 0.9659 0.2588
vn 0.7455 0.3635 -0.5587
vn 0.7806 0.3807 0.4957
vn 0.7033 0.3877 0.5959
vn -0.2246 0.5414 -0.8102
vn 0.0000 0.4699 -0.8827
vn 0.0000 0.5556 0.8315
vn -0.4230 0.4258 0.7999
vn 0.0004 0.5000 -0.8660
vn -0.0099 0.7106 -0.7035
vn -0.0036 0.5720 -0.8203
vn 0.0000 0.4365 -0.8997
vn 0.0280 0.4998 -0.8657
vn -0.0016 0.5000 0.8660
vn 0.0000 0.4365 0.8997
vn -0.0072 0.5000 0.8660
vn 0.1516 0.6706 0.7261
vn 0.0538 0.5560 0.8294
vn 0.0000 0.6090 -0.7932
vn -0.0138 0.6286 -0.7776
vn 0.7063 0.4312 -0.5615
vn 0.0000 0.6090 0.7932
vn -0.0138 0.6286 0.7776
vn 0.0000 -0.9010 0.4339
vn 0.0000 -0.9010 -0.4339
vn 0.6991 0.5756 -0.4242
vn 0.6991 0.5756 0.4242
vn 0.0332 0.8045 -0.5930
vn 0.0332 0.8045 0.5930
vn 0.0332 0.8046 -0.5930
vn -0.0166 0.8314 -0.5555
vn -0.0166 0.8314 0.5555
vn 0.9138 0.4061 0.0000
vn -0.0217 0.6485 -0.7609
vn -0.9138 0.4061 0.0000
vn 0.0000 0.8017 -0.5977
vn 0.0000 0.8201 0.5722
vn -0.9138 0.4062 -0.0000
vn 0.0012 0.6433 0.7656
vn 0.6991 0.6991 -0.1502
vn 0.6991 0.6991 -0.1503
vn 0.6991 0.6991 0.1503
vn 0.6991 0.6991 0.1502
vn 0.0180 0.9775 -0.2101
vn 0.0180 0.9775 0.2101
vn 0.0000 0.9777 -0.2101
vn 0.0180 0.9806 -0.1951
vn 0.0000 0.9808 0.1951
vn 0.0004 0.7129 -0.7013
vn -0.0075 0.7144 0.6997
vn 0.0011 0.7660 -0.6428
vn -0.0062 0.8710 -0.4913
vn 0.0344 0.7656 -0.6424
vn -0.0017 0.7660 0.6428
vn -0.0244 0.7658 0.6426
vn 0.1200 0.8523 0.5092
vn 0.0000 0.9401 -0.3408
vn 0.0000 0.9583 0.2858
vn 0.0000 0.9997 -0.0264
vn -0.9138 0.4061 -0.0001
vn -0.0215 0.8358 -0.5486
vn 0.0009 0.8332 0.5530
vn 0.0011 0.8718 -0.4899
vn -0.0248 0.8740 0.4852
vn 0.0009 0.9397 -0.3420
vn -0.0036 0.9721 -0.2346
vn 0.0298 0.9393 -0.3419
vn -0.0015 0.9515 0.3076
vn -0.0001 0.9397 0.3420
vn -0.0231 0.9394 0.3419
vn 0.0866 0.9664 0.2421
vn 0.0027 0.9515 -0.3078
vn 0.0009 0.9722 -0.2342
vn -0.0233 0.9725 0.2318
vn -0.0027 0.9991 -0.0412
vn 0.0001 0.9992 0.0412
vn -0.0027 1.0000 0.0000
vn 0.0424 0.9982 -0.0420
vn 0.0001 1.0000 0.0000
vn -0.0015 0.9991 0.0413
usemtl None
s off
f 1//1 2//1 3//1
f 4//1 1//1 3//1
f 5//2 4//2 3//2
f 6//3 5//3 3//3
f 7//3 6//3 3//3
f 2//3 7//3 3//3
f 5//2 8//2 4//2
f 9//4 1//4 4//4
f 10//4 9//4 4//4
f 8//4 10//4 4//4
f 11//5 12//5 2//5
f 1//5 11//5 2//5
f 13//3 7//3 2//3
f 12//3 13//3 2//3
f 9//4 14//4 1//4
f 14//4 11//4 1//4
f 15//6 8//6 5//6
f 16//3 15//3 5//3
f 6//3 16//3 5//3
f 15//6 17//6 8//6
f 18//4 10//4 8//4
f 17//4 18//4 8//4
f 19//7 20//7 12//7
f 11//7 19//7 12//7
f 21//3 13//3 12//3
f 20//3 21//3 12//3
f 22//4 19//4 11//4
f 14//4 22//4 11//4
f 23//1 14//1 9//1
f 24//1 23//1 9//1
f 10//2 24//2 9//2
f 10//2 25//2 24//2
f 26//4 23//4 24//4
f 27//4 26//4 24//4
f 25//4 27//4 24//4
f 28//5 22//5 14//5
f 23//5 28//5 14//5
f 26//4 28//4 23//4
f 29//8 16//8 6//8
f 30//9 29//9 6//9
f 7//9 30//9 6//9
f 31//8 16//8 29//8
f 32//3 33//3 29//3
f 30//3 32//3 29//3
f 33//3 31//3 29//3
f 34//10 30//10 7//10
f 13//10 34//10 7//10
f 35//3 32//3 30//3
f 34//3 35//3 30//3
f 18//6 25//6 10//6
f 18//6 36//6 25//6
f 37//4 27//4 25//4
f 36//4 37//4 25//4
f 38//4 19//4 22//4
f 39//7 38//7 22//7
f 28//7 39//7 22//7
f 40//4 39//4 28//4
f 26//4 40//4 28//4
f 31//11 41//11 16//11
f 41//3 15//3 16//3
f 42//11 41//11 31//11
f 33//3 42//3 31//3
f 43//12 34//12 13//12
f 21//12 43//12 13//12
f 43//3 35//3 34//3
f 44//13 17//13 15//13
f 41//3 44//3 15//3
f 44//13 45//13 17//13
f 46//4 18//4 17//4
f 45//4 46//4 17//4
f 47//14 48//14 20//14
f 19//14 47//14 20//14
f 49//3 21//3 20//3
f 48//3 49//3 20//3
f 38//4 47//4 19//4
f 50//15 51//15 52//15
f 53//16 50//16 52//16
f 27//17 52//17 26//17
f 52//18 51//18 26//18
f 51//19 40//19 26//19
f 27//20 53//20 52//20
f 37//21 54//21 27//21
f 54//20 53//20 27//20
f 55//4 39//4 40//4
f 51//22 56//22 40//22
f 56//23 55//23 40//23
f 57//16 50//16 53//16
f 54//16 57//16 53//16
f 58//15 56//15 51//15
f 50//15 58//15 51//15
f 59//4 58//4 50//4
f 60//4 59//4 50//4
f 57//4 60//4 50//4
f 61//24 57//24 54//24
f 37//25 61//25 54//25
f 58//26 62//26 56//26
f 62//27 55//27 56//27
f 46//13 36//13 18//13
f 46//13 63//13 36//13
f 64//4 37//4 36//4
f 63//4 64//4 36//4
f 65//4 47//4 38//4
f 66//14 65//14 38//14
f 39//14 66//14 38//14
f 55//4 66//4 39//4
f 61//24 60//24 57//24
f 59//26 62//26 58//26
f 42//28 67//28 41//28
f 67//3 44//3 41//3
f 68//28 67//28 42//28
f 69//3 68//3 42//3
f 33//3 69//3 42//3
f 70//29 43//29 21//29
f 49//29 70//29 21//29
f 71//3 35//3 43//3
f 70//3 71//3 43//3
f 72//4 73//4 74//4
f 75//4 72//4 74//4
f 76//30 75//30 74//30
f 77//9 76//9 74//9
f 73//9 77//9 74//9
f 77//3 78//3 76//3
f 78//30 75//30 76//30
f 79//31 77//31 73//31
f 72//31 79//31 73//31
f 79//3 78//3 77//3
f 80//32 81//32 37//32
f 82//33 80//33 37//33
f 64//34 82//34 37//34
f 81//25 61//25 37//25
f 83//4 66//4 55//4
f 84//35 83//35 55//35
f 85//36 84//36 55//36
f 62//37 85//37 55//37
f 81//24 60//24 61//24
f 59//26 85//26 62//26
f 86//38 87//38 81//38
f 87//39 60//39 81//39
f 80//40 86//40 81//40
f 59//41 88//41 85//41
f 88//42 84//42 85//42
f 89//4 90//4 60//4
f 87//4 89//4 60//4
f 90//4 59//4 60//4
f 91//43 88//43 59//43
f 90//4 91//4 59//4
f 92//4 93//4 75//4
f 93//4 94//4 75//4
f 94//4 95//4 75//4
f 96//4 72//4 75//4
f 95//4 96//4 75//4
f 78//44 92//44 75//44
f 79//3 97//3 78//3
f 97//44 92//44 78//44
f 98//45 79//45 72//45
f 96//45 98//45 72//45
f 99//3 100//3 79//3
f 100//3 101//3 79//3
f 98//3 99//3 79//3
f 101//3 97//3 79//3
f 87//46 86//46 80//46
f 102//46 87//46 80//46
f 103//4 102//4 80//4
f 82//4 103//4 80//4
f 104//47 83//47 84//47
f 90//48 105//48 84//48
f 91//48 90//48 84//48
f 88//48 91//48 84//48
f 106//4 104//4 84//4
f 105//4 106//4 84//4
f 107//49 45//49 44//49
f 67//3 107//3 44//3
f 107//49 108//49 45//49
f 109//4 46//4 45//4
f 108//4 109//4 45//4
f 110//50 111//50 48//50
f 47//50 110//50 48//50
f 112//3 49//3 48//3
f 111//3 112//3 48//3
f 65//4 110//4 47//4
f 109//49 63//49 46//49
f 109//49 113//49 63//49
f 114//4 64//4 63//4
f 113//4 114//4 63//4
f 115//4 110//4 65//4
f 116//50 115//50 65//50
f 66//50 116//50 65//50
f 83//4 116//4 66//4
f 68//51 117//51 67//51
f 117//3 107//3 67//3
f 118//51 117//51 68//51
f 69//3 119//3 68//3
f 119//3 118//3 68//3
f 120//52 70//52 49//52
f 112//52 120//52 49//52
f 121//3 71//3 70//3
f 120//3 121//3 70//3
f 122//3 123//3 124//3
f 123//3 125//3 124//3
f 35//53 122//53 124//53
f 32//53 35//53 124//53
f 125//54 32//54 124//54
f 125//54 33//54 32//54
f 114//55 82//55 64//55
f 114//55 126//55 82//55
f 126//4 103//4 82//4
f 127//4 116//4 83//4
f 128//56 127//56 83//56
f 104//56 128//56 83//56
f 106//4 128//4 104//4
f 129//4 89//4 87//4
f 130//4 129//4 87//4
f 102//46 130//46 87//46
f 123//3 131//3 125//3
f 131//57 33//57 125//57
f 131//57 69//57 33//57
f 132//3 133//3 122//3
f 133//3 123//3 122//3
f 71//58 132//58 122//58
f 35//58 71//58 122//58
f 134//4 93//4 92//4
f 97//59 134//59 92//59
f 101//59 134//59 97//59
f 135//60 98//60 96//60
f 95//60 135//60 96//60
f 135//3 99//3 98//3
f 136//3 137//3 131//3
f 138//3 136//3 131//3
f 123//3 138//3 131//3
f 137//61 69//61 131//61
f 137//61 119//61 69//61
f 121//62 133//62 132//62
f 71//62 121//62 132//62
f 139//63 123//63 133//63
f 121//63 139//63 133//63
f 120//3 140//3 121//3
f 140//3 139//3 121//3
f 141//64 135//64 95//64
f 94//64 141//64 95//64
f 141//3 142//3 135//3
f 142//3 99//3 135//3
f 106//65 143//65 127//65
f 128//65 106//65 127//65
f 143//4 144//4 127//4
f 144//4 116//4 127//4
f 111//3 145//3 112//3
f 140//49 120//49 112//49
f 145//49 140//49 112//49
f 144//51 146//51 115//51
f 116//51 144//51 115//51
f 146//4 147//4 115//4
f 147//4 110//4 115//4
f 147//51 148//51 111//51
f 110//51 147//51 111//51
f 148//3 145//3 111//3
f 149//66 119//66 137//66
f 136//3 149//3 137//3
f 149//66 150//66 119//66
f 150//3 151//3 119//3
f 151//3 118//3 119//3
f 101//67 152//67 134//67
f 152//4 93//4 134//4
f 100//67 152//67 101//67
f 153//68 126//68 114//68
f 113//4 153//4 114//4
f 153//68 103//68 126//68
f 154//3 155//3 117//3
f 155//3 107//3 117//3
f 118//50 154//50 117//50
f 151//50 154//50 118//50
f 156//52 113//52 109//52
f 108//4 156//4 109//4
f 156//52 157//52 113//52
f 157//4 153//4 113//4
f 155//52 108//52 107//52
f 155//52 158//52 108//52
f 158//4 156//4 108//4
f 136//69 150//69 149//69
f 136//69 159//69 150//69
f 159//3 160//3 150//3
f 160//3 161//3 150//3
f 161//3 151//3 150//3
f 162//70 138//70 123//70
f 139//70 162//70 123//70
f 140//3 163//3 139//3
f 163//3 162//3 139//3
f 100//71 164//71 152//71
f 164//4 165//4 152//4
f 165//4 93//4 152//4
f 99//71 164//71 100//71
f 166//72 141//72 94//72
f 93//72 166//72 94//72
f 166//3 167//3 141//3
f 167//3 142//3 141//3
f 168//73 159//73 136//73
f 138//3 168//3 136//3
f 168//73 169//73 159//73
f 169//3 170//3 159//3
f 170//3 160//3 159//3
f 169//74 168//74 138//74
f 162//74 169//74 138//74
f 163//3 171//3 162//3
f 171//3 169//3 162//3
f 172//75 129//75 130//75
f 102//46 172//46 130//46
f 173//76 174//76 90//76
f 89//77 173//77 90//77
f 174//48 105//48 90//48
f 175//78 102//78 153//78
f 102//79 103//79 153//79
f 157//4 175//4 153//4
f 106//80 176//80 143//80
f 176//4 177//4 143//4
f 177//4 144//4 143//4
f 105//81 176//81 106//81
f 171//3 178//3 169//3
f 178//3 170//3 169//3
f 179//3 180//3 154//3
f 180//3 155//3 154//3
f 151//14 179//14 154//14
f 161//14 179//14 151//14
f 148//3 181//3 145//3
f 163//13 140//13 145//13
f 181//13 163//13 145//13
f 182//29 157//29 156//29
f 158//4 182//4 156//4
f 182//29 183//29 157//29
f 183//4 175//4 157//4
f 177//28 184//28 146//28
f 144//28 177//28 146//28
f 184//4 185//4 146//4
f 185//4 147//4 146//4
f 180//82 186//82 155//82
f 186//83 187//83 155//83
f 187//84 188//84 155//84
f 188//85 158//85 155//85
f 189//86 190//86 158//86
f 188//85 189//85 158//85
f 190//4 182//4 158//4
f 191//87 192//87 148//87
f 147//88 191//88 148//88
f 192//3 181//3 148//3
f 193//88 191//88 147//88
f 185//89 194//89 147//89
f 194//90 195//90 147//90
f 195//91 193//91 147//91
f 196//92 172//92 102//92
f 175//93 196//93 102//93
f 196//94 129//94 172//94
f 174//95 173//95 105//95
f 173//96 176//96 105//96
f 99//97 165//97 164//97
f 142//97 165//97 99//97
f 167//98 166//98 93//98
f 197//98 167//98 93//98
f 165//4 197//4 93//4
f 198//4 89//4 129//4
f 196//99 199//99 129//99
f 199//99 198//99 129//99
f 198//4 200//4 89//4
f 201//100 173//100 89//100
f 200//100 201//100 89//100
f 175//101 199//101 196//101
f 201//102 176//102 173//102
f 175//103 202//103 199//103
f 202//99 198//99 199//99
f 203//102 176//102 201//102
f 200//100 203//100 201//100
f 204//104 202//104 175//104
f 183//4 204//4 175//4
f 203//105 205//105 176//105
f 205//4 206//4 176//4
f 206//4 177//4 176//4
f 142//1 197//1 165//1
f 167//1 197//1 142//1
f 207//9 189//9 188//9
f 187//106 207//106 188//106
f 208//107 190//107 189//107
f 209//108 208//108 189//108
f 207//9 209//9 189//9
f 187//106 186//106 207//106
f 186//106 210//106 207//106
f 210//106 211//106 207//106
f 212//109 209//109 207//109
f 211//109 212//109 207//109
f 212//108 213//108 209//108
f 213//108 208//108 209//108
f 191//9 214//9 215//9
f 216//106 217//106 215//106
f 217//106 218//106 215//106
f 218//106 191//106 215//106
f 214//110 216//110 215//110
f 193//108 195//108 214//108
f 195//111 194//111 214//111
f 194//108 219//108 214//108
f 219//108 220//108 214//108
f 191//9 193//9 214//9
f 220//110 216//110 214//110
f 218//112 192//112 191//112
f 221//3 222//3 179//3
f 222//3 180//3 179//3
f 161//7 221//7 179//7
f 160//7 221//7 161//7
f 192//3 223//3 181//3
f 171//6 163//6 181//6
f 223//6 171//6 181//6
f 224//4 200//4 198//4
f 202//113 225//113 198//113
f 225//114 224//114 198//114
f 224//115 226//115 200//115
f 226//116 203//116 200//116
f 227//12 183//12 182//12
f 190//4 227//4 182//4
f 227//12 228//12 183//12
f 228//4 204//4 183//4
f 206//11 229//11 184//11
f 177//11 206//11 184//11
f 229//4 230//4 184//4
f 230//4 185//4 184//4
f 204//117 225//117 202//117
f 226//118 205//118 203//118
f 225//114 231//114 224//114
f 231//115 226//115 224//115
f 232//119 231//119 225//119
f 204//120 232//120 225//120
f 231//118 205//118 226//118
f 228//4 232//4 204//4
f 231//121 232//121 205//121
f 232//4 233//4 205//4
f 233//4 206//4 205//4
f 228//4 234//4 232//4
f 234//4 233//4 232//4
f 213//107 190//107 208//107
f 217//112 192//112 218//112
f 180//122 210//122 186//122
f 185//123 219//123 194//123
f 222//124 235//124 180//124
f 235//125 210//125 180//125
f 213//126 236//126 190//126
f 236//4 227//4 190//4
f 217//127 237//127 192//127
f 237//3 223//3 192//3
f 230//128 238//128 185//128
f 238//129 219//129 185//129
f 210//106 235//106 211//106
f 235//106 239//106 211//106
f 240//130 212//130 211//130
f 239//130 240//130 211//130
f 240//108 241//108 212//108
f 241//108 242//108 212//108
f 242//108 213//108 212//108
f 243//106 244//106 216//106
f 244//106 245//106 216//106
f 245//106 217//106 216//106
f 220//131 243//131 216//131
f 219//108 238//108 220//108
f 238//108 246//108 220//108
f 246//131 243//131 220//131
f 235//106 247//106 239//106
f 247//106 248//106 239//106
f 249//130 240//130 239//130
f 248//130 249//130 239//130
f 249//108 250//108 240//108
f 250//108 241//108 240//108
f 251//106 252//106 243//106
f 252//106 244//106 243//106
f 246//131 251//131 243//131
f 238//108 253//108 246//108
f 253//108 254//108 246//108
f 254//131 251//131 246//131
f 255//3 256//3 221//3
f 256//3 222//3 221//3
f 160//5 255//5 221//5
f 170//5 255//5 160//5
f 237//3 257//3 223//3
f 178//2 171//2 223//2
f 257//2 178//2 223//2
f 247//106 258//106 248//106
f 258//106 259//106 248//106
f 260//132 249//132 248//132
f 259//132 260//132 248//132
f 260//108 261//108 249//108
f 261//133 250//133 249//133
f 258//106 262//106 259//106
f 262//106 251//106 259//106
f 254//132 260//132 259//132
f 251//132 254//132 259//132
f 254//108 263//108 260//108
f 263//108 264//108 260//108
f 264//108 261//108 260//108
f 265//10 228//10 227//10
f 236//4 265//4 227//4
f 265//10 234//10 228//10
f 233//8 266//8 229//8
f 206//8 233//8 229//8
f 266//4 267//4 229//4
f 267//4 230//4 229//4
f 262//106 268//106 251//106
f 268//106 252//106 251//106
f 253//108 263//108 254//108
f 242//134 236//134 213//134
f 245//135 237//135 217//135
f 257//3 269//3 255//3
f 269//3 256//3 255//3
f 170//1 257//1 255//1
f 178//1 257//1 170//1
f 237//3 269//3 257//3
f 266//9 234//9 265//9
f 236//4 270//4 265//4
f 270//4 266//4 265//4
f 266//9 233//9 234//9
f 270//4 267//4 266//4
f 222//136 247//136 235//136
f 230//137 253//137 238//137
f 241//134 236//134 242//134
f 244//135 237//135 245//135
f 256//138 258//138 222//138
f 258//139 247//139 222//139
f 241//140 270//140 236//140
f 244//141 252//141 237//141
f 252//142 269//142 237//142
f 267//143 263//143 230//143
f 263//144 253//144 230//144
f 250//145 270//145 241//145
f 256//146 262//146 258//146
f 267//147 264//147 263//147
f 261//148 270//148 250//148
f 268//149 269//149 252//149
f 267//150 270//150 261//150
f 264//151 267//151 261//151
f 256//152 269//152 268//152
f 262//153 256//153 268//153
